<?xml version="1.0" encoding="utf-8"?>
<!-- Generator: Adobe Illustrator 16.0.0, SVG Export Plug-In . SVG Version: 6.00 Build 0)  -->
<!DOCTYPE svg PUBLIC "-//W3C//DTD SVG 1.1//EN" "http://www.w3.org/Graphics/SVG/1.1/DTD/svg11.dtd">
<svg version="1.1" id="图层_1" xmlns="http://www.w3.org/2000/svg" xmlns:xlink="http://www.w3.org/1999/xlink" x="0px" y="0px"
	 width="1000px" height="400px" viewBox="0 0 1000 400" enable-background="new 0 0 1000 400" xml:space="preserve">
<linearGradient id="SVGID_1_" gradientUnits="userSpaceOnUse" x1="-42.6509" y1="312.666" x2="-42.6509" y2="478.9482" gradientTransform="matrix(1 0 0 1 158.0801 -194.3203)">
	<stop  offset="0" style="stop-color:#DDC078"/>
	<stop  offset="1" style="stop-color:#FFB96A"/>
</linearGradient>
<path fill="url(#SVGID_1_)" d="M82.341,276.875c-9.406-5.011-16.742-11.117-22.015-18.32c-0.527-0.781-0.791-1.646-0.791-2.584
	c0-0.779,0.264-1.604,0.791-2.468c0.528-0.858,1.141-1.444,1.845-1.76l19.773-9.396c0.527-0.313,1.318-0.469,2.374-0.469
	c2.283,0,4.127,0.862,5.537,2.584c2.11,2.819,5.273,5.092,9.492,6.811c4.219,1.725,8.346,2.586,12.391,2.586
	c6.854,0,12.565-2.036,17.138-6.106c4.569-4.071,6.942-9.313,7.119-15.735v-85.49H104.62c-1.231,0-2.333-0.429-3.295-1.291
	c-0.967-0.859-1.45-1.838-1.45-2.936v-19.962c0-1.094,0.48-2.034,1.45-2.818c0.963-0.782,2.064-1.175,3.295-1.175h61.958
	c1.406,0,2.545,0.393,3.427,1.175c0.877,0.784,1.318,1.801,1.318,3.053v109.443c0,12.529-3.823,23.215-11.47,32.06
	c-7.645,8.848-17.182,14.914-28.606,18.202c-5.799,1.563-12.307,2.349-19.511,2.349C101.542,284.467,91.74,281.889,82.341,276.875z"
	/>
<linearGradient id="SVGID_2_" gradientUnits="userSpaceOnUse" x1="106.5781" y1="317.5791" x2="106.5781" y2="480.5303" gradientTransform="matrix(1 0 0 1 158.0801 -194.3203)">
	<stop  offset="0" style="stop-color:#DDC078"/>
	<stop  offset="1" style="stop-color:#FFB96A"/>
</linearGradient>
<path fill="url(#SVGID_2_)" d="M233.63,278.626c-8.659-5.058-15.553-11.95-20.685-20.685c-5.135-8.734-7.7-18.233-7.7-28.5v-44.588
	c0-1.225,0.42-2.219,1.265-2.987c0.84-0.766,1.799-1.149,2.874-1.149h21.604c1.225,0,2.219,0.384,2.987,1.149
	c0.765,0.767,1.149,1.763,1.149,2.987v44.588c0,7.664,2.604,14.136,7.815,19.42c5.207,5.287,11.567,7.929,19.075,7.929
	c5.821,0,11.183-1.222,16.088-3.679c4.902-2.449,8.81-5.78,11.722-9.994c2.909-4.213,4.368-8.771,4.368-13.676V127.397
	c0-1.069,0.42-2.029,1.264-2.874c0.84-0.84,1.875-1.264,3.103-1.264h21.145c1.225,0,2.26,0.423,3.103,1.264
	c0.841,0.844,1.264,1.803,1.264,2.874v102.044c0,10.424-2.644,19.961-7.93,28.615c-5.286,8.657-12.641,15.514-22.064,20.568
	c-9.423,5.057-20.111,7.585-32.061,7.585C251.748,286.211,242.286,283.684,233.63,278.626z M206.512,150.266
	c-0.843-0.841-1.265-1.8-1.265-2.872v-19.997c0-1.224,0.42-2.219,1.265-2.987c0.84-0.765,1.799-1.15,2.873-1.15h21.604
	c1.225,0,2.219,0.385,2.987,1.15c0.765,0.768,1.148,1.763,1.148,2.987v19.997c0,1.072-0.383,2.031-1.148,2.872
	c-0.769,0.843-1.763,1.264-2.987,1.264h-21.604C208.311,151.529,207.351,151.109,206.512,150.266z"/>
<linearGradient id="SVGID_3_" gradientUnits="userSpaceOnUse" x1="255.6206" y1="317.8086" x2="255.6206" y2="478.9238" gradientTransform="matrix(1 0 0 1 158.0801 -194.3203)">
	<stop  offset="0" style="stop-color:#DDC078"/>
	<stop  offset="1" style="stop-color:#FFB96A"/>
</linearGradient>
<path fill="url(#SVGID_3_)" d="M365.436,283.225c-0.997-0.92-1.494-2.07-1.494-3.449V128.316c0-1.224,0.497-2.334,1.494-3.333
	c0.995-0.994,2.105-1.494,3.333-1.494h24.822c1.379,0,2.528,0.499,3.448,1.494c0.919,0.999,1.379,2.109,1.379,3.333v122.271
	c0,1.228,0.46,2.336,1.378,3.331c0.92,0.998,1.99,1.495,3.217,1.495h55.622c1.376,0,2.528,0.46,3.448,1.378
	c0.918,0.92,1.377,1.993,1.377,3.218v19.767c0,1.377-0.458,2.529-1.377,3.451c-0.919,0.916-2.07,1.377-3.448,1.377h-89.867
	C367.54,284.602,366.431,284.143,365.436,283.225z"/>
<g>
	
		<linearGradient id="SVGID_4_" gradientUnits="userSpaceOnUse" x1="399.1167" y1="315.5098" x2="399.1167" y2="481.4492" gradientTransform="matrix(1 0 0 1 158.0801 -194.3203)">
		<stop  offset="0" style="stop-color:#DDC078"/>
		<stop  offset="1" style="stop-color:#FFB96A"/>
	</linearGradient>
	<path fill="url(#SVGID_4_)" d="M482.727,238.751c-5.058-11.262-7.584-22.944-7.584-35.05c0-9.498,1.57-18.807,4.712-27.926
		c3.139-9.114,7.85-17.427,14.136-24.937c7.507-9.193,16.317-16.279,26.433-21.259c10.113-4.978,20.76-7.775,31.945-8.389h0.461
		c1.223,0,2.257,0.46,3.102,1.379c0.842,0.92,1.339,2.069,1.494,3.448v19.996c0,2.913-1.607,4.521-4.826,4.826
		c-6.895,0.615-13.482,2.569-19.768,5.861c-6.284,3.295-11.569,7.699-15.857,13.216c-8.273,10.112-12.414,21.529-12.414,34.244
		c0,7.663,1.611,15.055,4.828,22.179c3.22,7.123,7.814,13.216,13.791,18.271c10.113,8.275,21.448,12.414,34.017,12.414
		c7.659,0,15.016-1.612,22.062-4.828c7.045-3.217,13.022-7.889,17.928-14.021c4.138-4.898,7.24-10.302,9.312-16.203
		c2.067-5.896,3.102-11.91,3.102-18.041c0-8.733-1.917-16.854-5.745-24.364c-0.768-1.528-1.147-3.063-1.147-4.596
		c0-1.989,0.919-3.752,2.758-5.286c1.224-0.765,3.6-2.373,7.123-4.826c3.524-2.449,5.746-3.983,6.666-4.596
		c1.224-0.765,2.373-1.149,3.45-1.149c2.448,0,4.289,1.149,5.517,3.447c7.354,12.87,11.032,26.739,11.032,41.598
		c0,9.654-1.609,19.041-4.826,28.154c-3.217,9.119-7.97,17.432-14.25,24.937c-7.51,9.653-16.893,17.048-28.152,22.179
		c-11.261,5.135-23.022,7.701-35.277,7.701c-9.654,0-19.001-1.65-28.039-4.941c-9.041-3.295-17.087-8.082-24.133-14.364
		C495.059,259.706,487.784,250.012,482.727,238.751z"/>
</g>
<linearGradient id="SVGID_5_" gradientUnits="userSpaceOnUse" x1="569.377" y1="318.2715" x2="569.377" y2="478.4629" gradientTransform="matrix(1 0 0 1 158.0801 -194.3203)">
	<stop  offset="0" style="stop-color:#DDC078"/>
	<stop  offset="1" style="stop-color:#FFB96A"/>
</linearGradient>
<path fill="url(#SVGID_5_)" d="M760.897,284.143c0,0-0.615-0.765-1.841-2.297c-5.975-9.345-15.741-24.515-29.305-45.508
	c-13.56-20.988-23.787-37.002-30.68-48.034c-0.919-1.07-1.534-1.608-1.839-1.608c-0.312,0-0.5,0.309-0.577,0.92
	c-0.079,0.613-0.114,1.072-0.114,1.379l0.458,27.12c0,1.072-0.383,2.031-1.147,2.873c-0.77,0.842-1.764,1.26-2.985,1.26h-22.294
	c-1.229,0-2.264-0.378-3.104-1.146c-0.844-0.766-1.264-1.762-1.264-2.986v-87.797c0-1.224,0.42-2.258,1.264-3.102
	c0.84-0.84,1.874-1.264,3.104-1.264h22.524c1.068,0,1.987,0.46,2.757,1.379l55.619,92.621c1.379,2.608,2.529,3.905,3.448,3.905
	c0.767,0,1.149-1.297,1.149-3.905l-0.229-89.635c0-1.224,0.419-2.258,1.263-3.102c0.842-0.84,1.802-1.264,2.873-1.264h24.361
	c1.225,0,2.26,0.423,3.104,1.264c0.841,0.843,1.265,1.877,1.265,3.102v151.688c0,1.228-0.424,2.224-1.265,2.986
	c-0.843,0.771-1.878,1.147-3.104,1.147h-21.145h-0.229h-0.229C761.507,284.143,760.897,284.143,760.897,284.143z"/>
<linearGradient id="SVGID_6_" gradientUnits="userSpaceOnUse" x1="725.2344" y1="318.043" x2="725.2344" y2="478.9219" gradientTransform="matrix(1 0 0 1 158.0801 -194.3203)">
	<stop  offset="0" style="stop-color:#DDC078"/>
	<stop  offset="1" style="stop-color:#FFB96A"/>
</linearGradient>
<path fill="url(#SVGID_6_)" d="M826.893,150.726c-0.845-0.841-1.264-1.875-1.264-3.103v-19.765c0-1.225,0.42-2.219,1.264-2.987
	c0.841-0.765,1.801-1.148,2.871-1.148h106.642c1.225,0,2.259,0.422,3.103,1.265c0.841,0.843,1.263,1.803,1.263,2.872v19.765
	c0,1.074-0.424,2.069-1.263,2.988c-0.844,0.918-1.878,1.379-3.103,1.379H829.764C828.69,151.989,827.732,151.569,826.893,150.726z
	 M826.893,283.337c-0.845-0.84-1.264-1.799-1.264-2.872V174.283c0-1.224,0.42-2.219,1.264-2.987
	c0.841-0.766,1.801-1.149,2.871-1.149H849.3c1.224,0,2.219,0.384,2.985,1.149c0.766,0.768,1.148,1.763,1.148,2.987v16.548
	c0,2.912,1.989,4.368,5.977,4.368h57.915c1.07,0,1.99,0.344,2.759,1.034c0.766,0.688,1.147,1.574,1.147,2.643v19.767
	c0,1.073-0.384,1.955-1.147,2.645c-0.769,0.689-1.688,1.033-2.759,1.033h-58.604c-3.526,0-5.286,1.609-5.286,4.828v25.049
	c0,1.074,0.461,2.07,1.379,2.986c0.92,0.92,1.912,1.379,2.986,1.379h79.063c1.224,0,2.221,0.385,2.986,1.147
	c0.767,0.769,1.149,1.765,1.149,2.988v19.766c0,1.074-0.384,2.034-1.149,2.873c-0.767,0.843-1.764,1.265-2.986,1.265H829.763
	C828.69,284.602,827.732,284.182,826.893,283.337z"/>
</svg>
