<?xml version="1.0" encoding="utf-8"?>
<!-- Generator: Adobe Illustrator 16.0.0, SVG Export Plug-In . SVG Version: 6.00 Build 0)  -->
<!DOCTYPE svg PUBLIC "-//W3C//DTD SVG 1.1//EN" "http://www.w3.org/Graphics/SVG/1.1/DTD/svg11.dtd">
<svg version="1.1" id="图层_1" xmlns="http://www.w3.org/2000/svg" xmlns:xlink="http://www.w3.org/1999/xlink" x="0px" y="0px"
	 width="1000px" height="400px" viewBox="0 0 1000 400" enable-background="new 0 0 1000 400" xml:space="preserve">
<path fill="#FF91A4" d="M33.98,285.454c-10.495-5.591-18.679-12.403-24.563-20.44c-0.588-0.873-0.882-1.836-0.882-2.883
	c0-0.871,0.294-1.789,0.882-2.753c0.589-0.958,1.273-1.612,2.059-1.964l22.061-10.482c0.588-0.348,1.471-0.523,2.648-0.523
	c2.547,0,4.605,0.963,6.178,2.883c2.354,3.145,5.883,5.68,10.59,7.598c4.707,1.924,9.311,2.885,13.825,2.885
	c7.648,0,14.019-2.271,19.121-6.813c5.097-4.542,7.745-10.391,7.943-17.556v-95.383H58.836c-1.374,0-2.603-0.478-3.677-1.44
	c-1.079-0.958-1.617-2.051-1.617-3.276v-22.272c0-1.221,0.536-2.269,1.617-3.144c1.075-0.873,2.303-1.311,3.677-1.311h69.127
	c1.569,0,2.84,0.438,3.824,1.311c0.979,0.875,1.471,2.01,1.471,3.406v122.109c0,13.979-4.266,25.901-12.797,35.768
	c-8.53,9.872-19.17,16.64-31.916,20.308c-6.471,1.746-13.731,2.621-21.769,2.621C55.403,293.925,44.467,291.048,33.98,285.454z"/>
<path fill="#FFB59A" d="M202.776,287.407c-9.661-5.642-17.352-13.333-23.079-23.077c-5.729-9.745-8.59-20.344-8.59-31.797v-49.749
	c0-1.366,0.468-2.476,1.411-3.333c0.937-0.854,2.008-1.282,3.206-1.282h24.104c1.367,0,2.476,0.428,3.333,1.282
	c0.854,0.856,1.282,1.967,1.282,3.333v49.749c0,8.55,2.905,15.77,8.719,21.667c5.81,5.897,12.906,8.845,21.283,8.845
	c6.495,0,12.477-1.363,17.95-4.104c5.469-2.733,9.829-6.45,13.078-11.151c3.246-4.7,4.873-9.785,4.873-15.257V118.679
	c0-1.193,0.469-2.264,1.41-3.206c0.937-0.937,2.091-1.41,3.462-1.41h23.591c1.367,0,2.521,0.472,3.462,1.41
	c0.938,0.942,1.41,2.012,1.41,3.206v113.854c0,11.629-2.949,22.27-8.847,31.925c-5.897,9.66-14.104,17.31-24.617,22.949
	c-10.514,5.641-22.438,8.463-35.771,8.463C222.99,295.87,212.433,293.05,202.776,287.407z M172.52,144.194
	c-0.941-0.938-1.411-2.008-1.411-3.205v-22.31c0-1.366,0.469-2.476,1.411-3.333c0.937-0.854,2.007-1.283,3.205-1.283h24.104
	c1.367,0,2.476,0.429,3.333,1.283c0.854,0.856,1.282,1.967,1.282,3.333v22.31c0,1.197-0.428,2.267-1.282,3.205
	c-0.858,0.941-1.967,1.41-3.333,1.41h-24.104C174.527,145.604,173.456,145.135,172.52,144.194z"/>
<path fill="#FFED71" d="M349.834,292.537c-1.113-1.026-1.667-2.309-1.667-3.848V119.704c0-1.365,0.554-2.604,1.667-3.718
	c1.11-1.109,2.348-1.667,3.718-1.667h27.694c1.539,0,2.821,0.557,3.847,1.667c1.025,1.114,1.539,2.353,1.539,3.718v136.42
	c0,1.369,0.513,2.606,1.538,3.717c1.026,1.113,2.22,1.668,3.589,1.668h62.057c1.537,0,2.821,0.513,3.848,1.537
	c1.025,1.026,1.536,2.224,1.536,3.59v22.054c0,1.537-0.511,2.822-1.536,3.849c-1.025,1.024-2.309,1.537-3.848,1.537H353.551
	C352.181,294.075,350.944,293.563,349.834,292.537z"/>
<g>
	
		<animateTransform  restart="always" dur="1s" times="0;1" values="0 563 204;360 563 204" type="rotate" fill="remove" calcMode="linear" attributeName="transform" accumulate="none" additive="replace" repeatCount="indefinite">
		</animateTransform>
	<linearGradient id="SVGID_1_" gradientUnits="userSpaceOnUse" x1="472.2354" y1="204.3242" x2="655.3271" y2="204.3242">
		<stop  offset="0" style="stop-color:#6BC9AD"/>
		<stop  offset="1" style="stop-color:#FFFFFF"/>
	</linearGradient>
	<path fill="url(#SVGID_1_)" d="M480.697,242.918c-5.642-12.564-8.462-25.6-8.462-39.105c0-10.597,1.752-20.983,5.257-31.158
		c3.501-10.169,8.758-19.444,15.771-27.822c8.375-10.257,18.207-18.163,29.491-23.719c11.283-5.554,23.162-8.675,35.642-9.36h0.514
		c1.364,0,2.519,0.513,3.461,1.539c0.938,1.026,1.493,2.308,1.667,3.847v22.31c0,3.25-1.795,5.044-5.385,5.384
		c-7.692,0.686-15.044,2.866-22.054,6.539c-7.012,3.677-12.909,8.59-17.694,14.745c-9.231,11.282-13.849,24.02-13.849,38.207
		c0,8.55,1.797,16.797,5.387,24.745c3.59,7.947,8.718,14.744,15.386,20.385c11.283,9.232,23.93,13.85,37.951,13.85
		c8.547,0,16.753-1.799,24.616-5.386c7.859-3.591,14.529-8.802,20.002-15.646c4.615-5.467,8.078-11.494,10.387-18.078
		c2.308-6.577,3.461-13.288,3.461-20.129c0-9.743-2.139-18.803-6.41-27.182c-0.857-1.706-1.281-3.417-1.281-5.128
		c0-2.22,1.025-4.187,3.077-5.898c1.365-0.854,4.015-2.648,7.947-5.385c3.932-2.733,6.41-4.444,7.438-5.128
		c1.364-0.854,2.647-1.282,3.848-1.282c2.732,0,4.785,1.282,6.155,3.846c8.205,14.36,12.309,29.833,12.309,46.412
		c0,10.771-1.796,21.244-5.385,31.414c-3.589,10.172-8.891,19.447-15.898,27.82c-8.379,10.771-18.848,19.02-31.411,24.745
		c-12.564,5.729-25.687,8.593-39.36,8.593c-10.771,0-21.2-1.843-31.284-5.515c-10.087-3.675-19.064-9.017-26.925-16.026
		C494.456,266.298,486.339,255.482,480.697,242.918z"/>
</g>
<path fill="#8AD4FF" d="M791.057,293.563c0,0-0.687-0.854-2.053-2.563c-6.666-10.426-17.563-27.351-32.695-50.774
	c-15.129-23.418-26.54-41.284-34.231-53.592c-1.025-1.194-1.711-1.795-2.052-1.795c-0.345,0-0.557,0.345-0.643,1.026
	c-0.088,0.685-0.128,1.197-0.128,1.539l0.512,30.258c0,1.198-0.428,2.267-1.281,3.206c-0.858,0.939-1.967,1.406-3.332,1.406h-24.874
	c-1.37,0-2.524-0.422-3.461-1.279c-0.942-0.855-1.41-1.965-1.41-3.333v-97.957c0-1.365,0.468-2.519,1.41-3.461
	c0.937-0.937,2.091-1.41,3.461-1.41h25.132c1.192,0,2.218,0.513,3.076,1.539l62.056,103.339c1.538,2.91,2.821,4.359,3.847,4.359
	c0.854,0,1.282-1.449,1.282-4.359l-0.256-100.008c0-1.365,0.468-2.519,1.409-3.461c0.938-0.937,2.009-1.41,3.205-1.41h27.181
	c1.366,0,2.521,0.472,3.461,1.41c0.938,0.941,1.411,2.095,1.411,3.461v169.242c0,1.369-0.473,2.479-1.411,3.332
	c-0.939,0.859-2.095,1.281-3.461,1.281H793.62h-0.256h-0.256C791.736,293.563,791.057,293.563,791.057,293.563z"/>
<path fill="#DAA1D1" d="M864.688,144.707c-0.942-0.938-1.41-2.092-1.41-3.462v-22.052c0-1.367,0.469-2.476,1.41-3.333
	c0.938-0.854,2.008-1.282,3.204-1.282h118.98c1.366,0,2.521,0.472,3.462,1.411c0.938,0.941,1.409,2.012,1.409,3.205v22.052
	c0,1.198-0.472,2.308-1.409,3.334c-0.941,1.025-2.096,1.539-3.462,1.539h-118.98C866.694,146.117,865.626,145.648,864.688,144.707z
	 M864.688,292.664c-0.942-0.938-1.41-2.007-1.41-3.205V170.99c0-1.365,0.469-2.476,1.41-3.333c0.938-0.854,2.008-1.282,3.204-1.282
	h21.796c1.365,0,2.476,0.428,3.332,1.282c0.854,0.857,1.282,1.967,1.282,3.333v18.463c0,3.249,2.22,4.873,6.667,4.873h64.617
	c1.195,0,2.221,0.384,3.078,1.154c0.854,0.768,1.281,1.756,1.281,2.948v22.054c0,1.197-0.428,2.18-1.281,2.949
	c-0.857,0.771-1.883,1.153-3.078,1.153H900.2c-3.936,0-5.898,1.797-5.898,5.386v27.949c0,1.198,0.514,2.309,1.538,3.332
	c1.025,1.027,2.134,1.539,3.332,1.539h88.213c1.365,0,2.477,0.428,3.333,1.281c0.854,0.857,1.282,1.968,1.282,3.333v22.053
	c0,1.198-0.429,2.269-1.282,3.205c-0.856,0.94-1.968,1.411-3.333,1.411H867.892C866.694,294.075,865.626,293.605,864.688,292.664z"
	/>
</svg>
