<?xml version="1.0" encoding="utf-8"?>
<!-- Generator: Adobe Illustrator 20.1.0, SVG Export Plug-In . SVG Version: 6.00 Build 0)  -->
<svg version="1.1" id="图层_1" xmlns="http://www.w3.org/2000/svg" xmlns:xlink="http://www.w3.org/1999/xlink" x="0px" y="0px"
	 width="1904.9px" height="408.8px" viewBox="0 0 1904.9 408.8" style="enable-background:new 0 0 1904.9 408.8;"
	 xml:space="preserve">
<style type="text/css">
	.st0{opacity:0.6;}
	.st1{fill:#FFFFFF;stroke:#8998A1;stroke-width:0.7;stroke-linecap:round;stroke-linejoin:round;stroke-miterlimit:10;}
	.st2{fill:none;stroke:#8998A1;stroke-width:0.7;stroke-linecap:round;stroke-linejoin:round;stroke-miterlimit:10;}
	
		.st3{opacity:0.8;fill:none;stroke:#8998A1;stroke-width:0.7;stroke-linecap:round;stroke-linejoin:round;stroke-miterlimit:10;enable-background:new    ;}
	
		.st4{opacity:0.8;fill:none;stroke:#8998A1;stroke-width:1.2;stroke-linecap:round;stroke-linejoin:round;stroke-miterlimit:10;enable-background:new    ;}
	.st5{fill:#FFFFFF;stroke:#F09A83;stroke-width:0.8;stroke-linecap:round;stroke-linejoin:round;stroke-miterlimit:10;}
	.st6{opacity:0.8;}
	.st7{fill:none;stroke:#F09A83;stroke-width:0.8;stroke-linecap:round;stroke-linejoin:round;stroke-miterlimit:10;}
	.st8{fill:none;stroke:#8998A1;stroke-width:0.7;stroke-linecap:round;stroke-linejoin:round;}
	.st9{fill:none;stroke:#8998A1;stroke-width:0.7;stroke-linecap:round;stroke-linejoin:round;stroke-dasharray:3.3028,3.3028;}
</style>
<g class="st0">
	<g>
		<circle class="st1" cx="1815.2" cy="353.1" r="16.2"/>
		<polyline class="st2" points="1806.1,345.5 1815.2,350.7 1814.5,403 		"/>
		<line class="st2" x1="1808.4" y1="358.2" x2="1815" y2="363"/>
		<line class="st2" x1="1815.1" y1="357.5" x2="1822.9" y2="353.1"/>
	</g>
	<g>
		<circle class="st1" cx="982" cy="334.7" r="23.9"/>
		<polyline class="st2" points="968.5,323.5 982,331.2 981,408.5 		"/>
		<line class="st2" x1="971.9" y1="342.3" x2="981.8" y2="349.3"/>
		<line class="st2" x1="981.9" y1="341.1" x2="993.5" y2="334.7"/>
	</g>
	<g>
		<g>
			<line class="st2" x1="1124.7" y1="354.4" x2="1114" y2="356.2"/>
			<line class="st2" x1="1110.9" y1="353" x2="1113" y2="340.7"/>
			<circle class="st1" cx="1127" cy="353.6" r="2.1"/>
			<circle class="st1" cx="1110.6" cy="356.4" r="3.2"/>
			<circle class="st1" cx="1113.3" cy="337.5" r="3.2"/>
		</g>
		<path class="st1" d="M1171.8,382.4H1060c-1.8,0-3.3-1.5-3.3-3.3v-7.3c0-1.8,1.5-3.3,3.3-3.3h111.8c1.8,0,3.3,1.5,3.3,3.3v7.3
			C1175.1,380.9,1173.6,382.4,1171.8,382.4z"/>
		<path class="st2" d="M1172.6,394.5h-113.3c-1.4,0-2.5-1.1-2.5-2.5v-64.7c0-1.4,1.1-2.5,2.5-2.5h113.3c1.4,0,2.5,1.1,2.5,2.5V392
			C1175.1,393.4,1174,394.5,1172.6,394.5z"/>
		<circle class="st1" cx="1071.1" cy="401.8" r="4.6"/>
		<circle class="st1" cx="1162.9" cy="401.8" r="4.6"/>
		<g>
			<line class="st2" x1="1087.6" y1="324.8" x2="1087.6" y2="394"/>
			<line class="st2" x1="1144.3" y1="324.8" x2="1144.3" y2="394"/>
		</g>
		<rect x="1063.7" y="340" class="st1" width="17.5" height="21.9"/>
		<line class="st2" x1="1067.8" y1="353.6" x2="1075.7" y2="346.1"/>
		<line class="st2" x1="1072.4" y1="353.6" x2="1068.2" y2="357.6"/>
	</g>
	<path class="st3" d="M1295.1,67.4h18.4c1.5-6.8,7.6-11.8,14.8-11.8c1.6,0,3.1,0.2,4.6,0.7c3.1-11.2,13.4-19.4,25.6-19.4
		c14.7,0,26.6,11.9,26.6,26.6c0,1.3-0.1,2.6-0.3,3.9h18.5"/>
	<path class="st4" d="M1758.4,223.8h24.8c2.1-9.1,10.2-15.9,20-15.9c2.1,0,4.2,0.3,6.1,0.9c4.2-15.1,18.1-26.2,34.6-26.2
		c19.8,0,35.9,16.1,35.9,35.9c0,1.8-0.1,3.6-0.4,5.3h24.9"/>
	<path class="st4" d="M1692.9,197.6h16.6c1.4-6.1,6.8-10.6,13.4-10.6c1.4,0,2.8,0.2,4.1,0.6c2.8-10.1,12.1-17.5,23.1-17.5
		c13.2,0,24,10.7,24,24c0,1.2-0.1,2.4-0.3,3.5h16.7"/>
	<path class="st3" d="M605.3,44.1h-26.3c-2.2-9.7-10.9-16.9-21.2-16.9c-2.3,0-4.5,0.4-6.5,1c-4.5-16.1-19.2-27.8-36.7-27.8
		c-21.1,0-38.2,17.1-38.2,38.2c0,1.9,0.1,3.8,0.4,5.6h-26.5"/>
	<path class="st3" d="M210.8,221.3h-12.7c-1.1-4.7-5.2-8.1-10.2-8.1c-1.1,0-2.1,0.2-3.1,0.5c-2.2-7.7-9.2-13.4-17.7-13.4
		c-10.1,0-18.3,8.2-18.3,18.3c0,0.9,0.1,1.8,0.2,2.7h-12.7"/>
	<path class="st3" d="M180.7,161.2h-30.6c-2.6-11.3-12.6-19.7-24.7-19.7c-2.6,0-5.2,0.4-7.6,1.2c-5.2-18.7-22.4-32.4-42.7-32.4
		c-24.5,0-44.4,19.9-44.4,44.4c0,2.2,0.2,4.4,0.5,6.6H0.3"/>
	<g>
		<path class="st2" d="M811.3,400.7h-90.7c-1.4,0-2.5-1.1-2.5-2.5v-61.4c0-1.4,1.1-2.5,2.5-2.5h88.2c1.4,0,2.5,1.1,2.5,2.5V400.7z"
			/>
		<circle class="st1" cx="738.3" cy="400" r="6.4"/>
		<circle class="st1" cx="793.7" cy="400" r="6.4"/>
		<path class="st2" d="M822.8,359.9h23.1l-4.4-8.2c-1.2-1.4-2.9-2.2-4.8-2.2h-25.3v51.2h38.8c2.4,0,4.3-1.9,4.3-4.3v-19.6
			c0-0.6-0.1-1.2-0.3-1.7h-31.3L822.8,359.9L822.8,359.9z"/>
		<path class="st1" d="M845.9,359.9h-23.1v15.2h31.3c-0.2-0.5-0.5-1-0.9-1.5L845.9,359.9z"/>
		<line class="st2" x1="830.8" y1="369" x2="842.1" y2="362.3"/>
		<line class="st2" x1="830.8" y1="372.8" x2="836.4" y2="369.4"/>
		<rect x="718.1" y="357" class="st2" width="93.2" height="10.3"/>
		<g>
			<circle class="st1" cx="764.7" cy="362.1" r="14.9"/>
			<g>
				<polyline class="st2" points="769.8,354.8 764.7,360 759.6,354.8 				"/>
				<line class="st2" x1="758.1" y1="360" x2="771.3" y2="360"/>
				<line class="st2" x1="764.7" y1="360" x2="764.7" y2="371.1"/>
				<line class="st2" x1="758.1" y1="365.2" x2="771.3" y2="365.2"/>
			</g>
		</g>
		<circle class="st1" cx="833.2" cy="400" r="6.4"/>
	</g>
	<g>
		<g>
			<circle class="st1" cx="226.7" cy="330.2" r="22.7"/>
			<polyline class="st2" points="213.9,319.6 226.7,326.9 225.7,400.2 			"/>
			<line class="st2" x1="217.1" y1="337.4" x2="226.5" y2="344.1"/>
			<line class="st2" x1="226.6" y1="336.3" x2="237.5" y2="330.2"/>
		</g>
		<g>
			<circle class="st1" cx="633.3" cy="346.4" r="16.9"/>
			<polyline class="st2" points="623.8,338.4 633.3,343.9 632.6,398.7 			"/>
			<line class="st2" x1="626.2" y1="351.8" x2="633.2" y2="356.7"/>
			<line class="st2" x1="633.2" y1="350.9" x2="641.5" y2="346.4"/>
		</g>
		<g>
			<circle class="st1" cx="156" cy="376.1" r="10.5"/>
			<polyline class="st2" points="150.1,371.2 156,374.6 155.6,408.5 			"/>
			<line class="st2" x1="151.6" y1="379.5" x2="155.9" y2="382.5"/>
			<line class="st2" x1="156" y1="379" x2="161.1" y2="376.1"/>
		</g>
		<circle class="st5" cx="396.1" cy="68.1" r="4.4"/>
		<circle class="st5" cx="361.4" cy="102.8" r="4.4"/>
		<line class="st2" x1="364.5" y1="99.7" x2="393" y2="71.2"/>
		<circle class="st5" cx="361.4" cy="68.1" r="4.4"/>
		<circle class="st5" cx="396.1" cy="102.8" r="4.4"/>
		<line class="st2" x1="393" y1="99.7" x2="364.5" y2="71.2"/>
		<circle class="st5" cx="354.2" cy="85.5" r="4.4"/>
		<circle class="st5" cx="403.3" cy="85.5" r="4.4"/>
		<line class="st2" x1="398.9" y1="85.5" x2="358.6" y2="85.5"/>
		<circle class="st5" cx="378.7" cy="110" r="4.4"/>
		<circle class="st5" cx="378.7" cy="61" r="4.4"/>
		<line class="st2" x1="378.7" y1="65.3" x2="378.7" y2="105.6"/>
		<circle class="st1" cx="378.7" cy="85.5" r="6.7"/>
		<circle class="st5" cx="378.7" cy="85.5" r="2.8"/>
		<polygon class="st2" points="290.9,393.8 465,393.8 465,244 465,221 290.9,221 		"/>
		<rect x="351.4" y="340.2" class="st2" width="53.1" height="3.7"/>
		<rect x="358.7" y="353.6" class="st1" width="38.4" height="40.2"/>
		<rect x="285.4" y="212.4" class="st1" width="185.1" height="8.5"/>
		<path class="st2" d="M438.9,96.1h-27.5c-3,15.8-16.9,27.7-33.5,27.7s-30.5-11.9-33.5-27.7h-53.5v116.4h174v-76.7L438.9,96.1z"/>
		<polygon class="st1" points="632.8,393.8 632.8,400.3 617.4,400.3 617.4,393.8 231.9,393.8 231.9,400.3 217.4,400.3 217.4,393.8 
			197.9,393.8 197.9,406.7 683.3,406.7 683.3,393.8 		"/>
		<g>
			<path class="st2" d="M382.1,201.7h-42.5c-3,0-5.4-2.4-5.4-5.4v-8.2c0-3,2.4-5.4,5.4-5.4h42.5c3,0,5.4,2.4,5.4,5.4v8.2
				C387.4,199.4,385,201.7,382.1,201.7z"/>
			<path class="st1" d="M389.7,212.4H332c-1,0-1.9-0.8-1.9-1.9v-6.8c0-1,0.8-1.9,1.9-1.9h57.7c1,0,1.9,0.8,1.9,1.9v6.8
				C391.6,211.5,390.7,212.4,389.7,212.4z"/>
			<path class="st1" d="M335.6,201.7h-3.5c-1.1,0-2-0.9-2-2v-8.6c0-1.1,0.9-2,2-2h3.5c1.1,0,2,0.9,2,2v8.6
				C337.6,200.9,336.7,201.7,335.6,201.7z"/>
			<path class="st1" d="M389.6,201.7h-3.5c-1.1,0-2-0.9-2-2v-8.6c0-1.1,0.9-2,2-2h3.5c1.1,0,2,0.9,2,2v8.6
				C391.6,200.9,390.7,201.7,389.6,201.7z"/>
			<circle class="st1" cx="360.2" cy="188.6" r="1.2"/>
			<circle class="st1" cx="375.6" cy="188.6" r="1.2"/>
			<circle class="st1" cx="360.2" cy="197" r="1.2"/>
			<circle class="st1" cx="344.6" cy="197" r="1.2"/>
			<circle class="st1" cx="375.6" cy="197" r="1.2"/>
			<path class="st1" d="M399,211.6l-1.1,0.2c-1.6,0.3-3.1-0.7-3.5-2.3l-2.4-11.4c-0.3-1.6,0.7-3.1,2.3-3.5l1.1-0.2
				c1.6-0.3,3.1,0.7,3.5,2.3l2.4,11.4C401.6,209.7,400.6,211.3,399,211.6z"/>
		</g>
		<g>
			<line class="st2" x1="425.6" y1="161.4" x2="425.6" y2="209.9"/>
			<path class="st1" d="M425.6,209c-3,0-5.8,1.3-7.6,3.4h15.3C431.3,210.3,428.6,209,425.6,209z"/>
			<path class="st5" d="M435.2,150.4c0-0.3,0.1-0.6,0.1-0.9c0-3.2-2.6-5.7-5.7-5.7c-2.2,0-4.1,1.3-5.1,3.1c-0.6-0.4-1.4-0.6-2.2-0.6
				c-2.4,0-4.3,1.8-4.5,4.1c-0.3-0.1-0.7-0.1-1.1-0.1c-3.1,0-5.6,2.5-5.6,5.6s2.5,5.6,5.6,5.6h17.7c3.1,0,5.6-2.5,5.6-5.6
				C440,153.2,437.9,150.8,435.2,150.4L435.2,150.4z"/>
		</g>
		<path class="st2" d="M390.1,244.7c4.6-5.7,11.6-9.4,19.4-9.4l0,0c13.7,0,24.8,11.2,24.8,24.8v52"/>
		<path class="st2" d="M392.3,245.9c-0.2-0.7-0.9-1.2-1.8-1.2s-1.5,0.5-1.8,1.2c0.6-0.2,1.1-0.2,1.8-0.2
			C391.2,245.7,391.8,245.8,392.3,245.9z"/>
		<path class="st1" d="M392.3,245.9c-0.6-0.2-1.1-0.2-1.8-0.2c-0.6,0-1.2,0.1-1.8,0.2c-2.9,0.8-5,3.4-5,6.5c0,0.9,0.2,1.8,0.5,2.5
			h12.5c0.3-0.8,0.5-1.6,0.5-2.5C397.3,249.3,395.2,246.7,392.3,245.9z"/>
		<polyline class="st2" points="345.1,312.9 345.1,283.7 395.9,283.7 395.9,312.9 		"/>
		<rect x="345.1" y="283.7" class="st2" width="50.8" height="6.8"/>
		<circle class="st2" cx="357" cy="287" r="0.9"/>
		<circle class="st2" cx="383" cy="280.6" r="1.2"/>
		<rect x="369.4" y="286.4" class="st2" width="2.3" height="4.1"/>
		<path class="st1" d="M381.4,293.7h-21.9c-0.5,0-0.9-0.4-0.9-0.9v-1.4c0-0.5,0.4-0.9,0.9-0.9h21.9c0.5,0,0.9,0.4,0.9,0.9v1.4
			C382.3,293.3,381.9,293.7,381.4,293.7z"/>
		<rect x="362.5" y="293.7" class="st2" width="16" height="2.1"/>
		<g>
			<polygon class="st1" points="381.4,312.8 382.5,312.8 378.6,293.7 376.7,293.7 			"/>
			<polygon class="st1" points="359.6,312.8 358.5,312.8 362.4,293.7 364.3,293.7 			"/>
		</g>
		<line class="st2" x1="370.5" y1="295.9" x2="370.5" y2="293.7"/>
		<rect x="353" y="258.4" class="st5" width="35" height="19.1"/>
		<rect x="353" y="273.2" class="st5" width="35" height="4.3"/>
		<path class="st1" d="M377.2,286.7h-13.4c-1.1,0-1.9-0.9-1.8-2l0.6-7c0.1-0.9,0.9-1.7,1.8-1.7h12.3c1,0,1.7,0.7,1.8,1.7l0.6,7
			C379.1,285.8,378.3,286.7,377.2,286.7z"/>
		<rect x="426" y="309" class="st2" width="15" height="3.9"/>
		<polygon class="st2" points="578.1,393.8 465,393.8 465,231 578.1,260.6 		"/>
		<polygon class="st1" points="602.1,266.7 465,231 465,221.1 602.1,256.8 		"/>
		<rect x="285.4" y="312.9" class="st1" width="185.1" height="8.5"/>
		<path class="st1" d="M465,231v27.9c0,4.9,4,9,9,9l0,0c4.9,0,9-4,9-9v-23.3L465,231z"/>
		<path class="st2" d="M482.9,235.7v23.3v5.2c0,4.9,4,9,9,9s9-4,9-9v-23.8L482.9,235.7z"/>
		<path class="st1" d="M500.8,240.3v23.8v3.8c0,4.9,4,9,9,9s9-4,9-9V245L500.8,240.3z"/>
		<path class="st2" d="M518.8,245v22.9v4.9c0,4.9,4,9,9,9l0,0c4.9,0,9-4,9-9v-23.2L518.8,245z"/>
		<path class="st1" d="M536.7,249.7v23.2v5.2c0,4.9,4,9,9,9s9-4,9-9v-23.7L536.7,249.7z"/>
		<path class="st2" d="M554.6,254.3V278v4.3c0,4.9,4,9,9,9s9-4,9-9V259L554.6,254.3z"/>
		<path class="st1" d="M572.6,282.4v3.6c0,4.9,4,9,9,9l0,0c4.9,0,9-4,9-9v-22.3l-17.9-4.7L572.6,282.4L572.6,282.4z"/>
		<path class="st1" d="M465,221.1v0.2C465,221.3,465,221.2,465,221.1L465,221.1z"/>
		<path class="st1" d="M518.8,235.1L518.8,235.1l0,0.1C518.8,235.2,518.8,235.1,518.8,235.1z"/>
		<path class="st2" d="M550.8,328.2h27.3v65.6h-37.9v-55C540.3,332.9,545,328.2,550.8,328.2z"/>
	</g>
	<g>
		<polygon class="st2" points="1661.2,266.8 1614.2,243.3 1614.2,123 1661.2,119.6 		"/>
		<polygon class="st2" points="1661.2,393.5 1614.2,367 1614.2,266.8 1661.2,266.8 		"/>
		<g>
			<polygon class="st3" points="1674.2,118.7 1370.4,138.7 1370.4,122.7 1674.2,102.6 			"/>
			<polygon class="st2" points="1661.2,266.8 1391.4,266.8 1391.4,137.2 1661.2,119.6 			"/>
			<polygon class="st2" points="1432,243.3 1391.4,266.8 1391.4,137.2 1432,134.3 			"/>
			<polygon class="st1" points="1432,243.3 1614.2,243.3 1661.2,266.8 1391.4,266.8 			"/>
			<polygon class="st1" points="1424.7,371.6 1398.7,388.7 1398.7,309 1424.7,294.2 			"/>
			<polygon class="st2" points="1432,367 1391.4,393.5 1391.4,266.8 1432,266.8 			"/>
			<polygon class="st2" points="1432,367 1614.2,367 1661.2,393.5 1391.4,393.5 			"/>
			<ellipse class="st2" cx="1403.5" cy="345.2" rx="1.1" ry="3.8"/>
			<g>
				<circle class="st1" cx="1326.7" cy="330.4" r="22.5"/>
				<polyline class="st2" points="1314,319.8 1326.7,327.1 1325.8,399.9 				"/>
				<line class="st2" x1="1317.2" y1="337.6" x2="1326.5" y2="344.2"/>
				<line class="st2" x1="1326.6" y1="336.5" x2="1337.5" y2="330.4"/>
			</g>
			<rect x="1276.3" y="393.6" class="st1" width="12.8" height="12.8"/>
			<polygon class="st1" points="1332.4,393.6 1332.4,400 1318,400 1318,393.6 1298.6,393.6 1298.6,406.5 1747.7,406.5 1747.7,393.6 
							"/>
			<g>
				<path class="st5" d="M1519.7,183c-3.8,0-5.1,0-6.7,0c-5.1,0-9.2-4-9.2-8.9c0-3.7,2.3-6.8,5.6-8.2c0.4-3.2,3.2-5.6,6.5-5.6
					c1.1,0,2.1,0.3,3,0.7c2.1-3.6,6.1-6,10.7-6c6.6,0,12,5,12.3,11.4c3.9,0.8,6.9,4.2,6.9,8.3c0,4.6-3.9,8.5-8.7,8.5h-7.2"/>
				<g class="st6">
					<polyline class="st5" points="1518.4,173.6 1526.3,165.7 1534.3,173.6 					"/>
					<line class="st7" x1="1526.3" y1="166.1" x2="1526.3" y2="183"/>
				</g>
			</g>
			<g>
				<rect x="1543.2" y="363.8" class="st1" width="52.3" height="8.2"/>
				<g>
					<rect x="1550.9" y="372" class="st1" width="3.7" height="11.7"/>
					<rect x="1584" y="372" class="st1" width="3.7" height="11.7"/>
				</g>
			</g>
			<g>
				<rect x="1451.9" y="363.8" class="st1" width="52.3" height="8.2"/>
				<g>
					<rect x="1459.6" y="372" class="st1" width="3.7" height="11.7"/>
					<rect x="1492.7" y="372" class="st1" width="3.7" height="11.7"/>
				</g>
			</g>
			<g>
				<g>
					<rect x="1459.5" y="249.8" class="st1" width="3.1" height="5.4"/>
					<rect x="1486.5" y="249.8" class="st1" width="3.1" height="5.4"/>
				</g>
				<g>
					<path class="st1" d="M1462.2,245.1c-1.6,0-2.8-1.3-2.8-2.8v-8.5c0-7.9,6.9-14.4,15.2-14.4l0,0c8.4,0,15.2,6.5,15.2,14.4v8.5
						c0,1.6-1.3,2.8-2.8,2.8H1462.2z"/>
					<path class="st1" d="M1488.9,252h-28.7c-0.8,0-1.5-0.7-1.5-1.5v-10.8c0-0.8,0.7-1.5,1.5-1.5h28.7c0.8,0,1.5,0.7,1.5,1.5v10.8
						C1490.4,251.3,1489.8,252,1488.9,252z"/>
					<g>
						<path class="st1" d="M1462.3,233.4h-5.2c-0.9,0-1.7,0.8-1.7,1.7v15c0,0.9,0.8,1.7,1.7,1.7h5.2c0.9,0,1.7-0.8,1.7-1.7v-15
							C1464,234.1,1463.2,233.4,1462.3,233.4z"/>
						<path class="st1" d="M1492,233.4h-5.2c-0.9,0-1.7,0.8-1.7,1.7v15c0,0.9,0.8,1.7,1.7,1.7h5.2c0.9,0,1.7-0.8,1.7-1.7v-15
							C1493.7,234.1,1492.9,233.4,1492,233.4z"/>
					</g>
				</g>
			</g>
			<g>
				<g>
					<rect x="1556.7" y="249.8" class="st1" width="3.1" height="5.4"/>
					<rect x="1583.7" y="249.8" class="st1" width="3.1" height="5.4"/>
				</g>
				<g>
					<path class="st1" d="M1559.3,245.1c-1.6,0-2.8-1.3-2.8-2.8v-8.5c0-7.9,6.9-14.4,15.2-14.4l0,0c8.4,0,15.2,6.5,15.2,14.4v8.5
						c0,1.6-1.3,2.8-2.8,2.8H1559.3z"/>
					<path class="st1" d="M1586.1,252h-28.7c-0.8,0-1.5-0.7-1.5-1.5v-10.8c0-0.8,0.7-1.5,1.5-1.5h28.7c0.8,0,1.5,0.7,1.5,1.5v10.8
						C1587.6,251.3,1586.9,252,1586.1,252z"/>
					<g>
						<path class="st1" d="M1559.5,233.4h-5.2c-0.9,0-1.7,0.8-1.7,1.7v15c0,0.9,0.8,1.7,1.7,1.7h5.2c0.9,0,1.7-0.8,1.7-1.7v-15
							C1561.1,234.1,1560.4,233.4,1559.5,233.4z"/>
						<path class="st1" d="M1589.1,233.4h-5.2c-0.9,0-1.7,0.8-1.7,1.7v15c0,0.9,0.8,1.7,1.7,1.7h5.2c0.9,0,1.7-0.8,1.7-1.7v-15
							C1590.8,234.1,1590,233.4,1589.1,233.4z"/>
					</g>
				</g>
			</g>
			<g>
				<g>
					<line class="st8" x1="1526.3" y1="128.8" x2="1526.3" y2="130.3"/>
					<line class="st9" x1="1526.3" y1="133.6" x2="1526.3" y2="151.8"/>
					<line class="st8" x1="1526.3" y1="153.4" x2="1526.3" y2="154.9"/>
				</g>
			</g>
			<g>
				<g>
					<path class="st5" d="M1460.5,320c7.4,0,11.5-0.8,16.9-2.6v0c5,1.7,10.7,2.6,16.7,2.6l3.2,23.4c0,0-7.2,9.6-19.9,13.9
						c-12.7-4.4-19.9-13.9-19.9-13.9L1460.5,320z"/>
					<line class="st7" x1="1477.4" y1="317.4" x2="1477.4" y2="321.7"/>
					<path class="st5" d="M1459.7,324.3c7.8,0,12.1-0.8,17.8-2.6v0c5.2,1.7,11.2,2.6,17.6,2.6"/>
				</g>
				<g>
					<line class="st7" x1="1469.2" y1="331.7" x2="1485.6" y2="331.7"/>
					<line class="st7" x1="1477.4" y1="346.2" x2="1477.4" y2="331.7"/>
				</g>
			</g>
			<g>
				<path class="st5" d="M1588,323c-0.1-0.1-0.2-0.1-0.3-0.2l-13.5-7.8l-0.4-0.2c-1.7-0.8-3.6-0.8-5.3,0.1l-13.8,8l-0.3,0.2
					c-1.7,1-2.7,2.8-2.7,4.8v16c0,1.9,1,3.7,2.6,4.8l13.8,8c0.1,0,0.1,0.1,0.2,0.1l0.1,0c0.8,0.4,1.8,0.7,2.7,0.7
					c0.9,0,1.9-0.2,2.7-0.7l0.1-0.1c0,0,0.1,0,0.1-0.1l13.5-7.8l0.5-0.3c1.6-1,2.6-2.8,2.6-4.7v-16
					C1590.6,325.8,1589.6,324,1588,323L1588,323z"/>
				<g>
					<path class="st5" d="M1579.4,325.6c-4.1,5.8-10.8,9.5-18.4,9.5"/>
					<polyline class="st5" points="1573.7,325.6 1579.4,325.6 1579.4,331.4 					"/>
					<g>
						<line class="st7" x1="1561.1" y1="338" x2="1561.1" y2="345.8"/>
						<line class="st7" x1="1570.2" y1="337.2" x2="1570.2" y2="345.8"/>
						<line class="st7" x1="1579.4" y1="334.5" x2="1579.4" y2="345.8"/>
					</g>
				</g>
			</g>
		</g>
	</g>
</g>
</svg>
