<svg xmlns="http://www.w3.org/2000/svg" xmlns:xlink="http://www.w3.org/1999/xlink" version="1.1" id="图层_1" x="0px" y="0px" viewBox="0 0 1920 660" enable-background="new 0 0 1920 660" xml:space="preserve" class="index-ani">
<g opacity="0.4">
	<g>
		<path fill="#F0F0F0" d="M159.7,659.6H36.9c-2.2,0-4-1.8-4-4v-336h130.8v336C163.7,657.8,161.9,659.6,159.7,659.6z"></path>
		<path fill="#F5F5F5" d="M139.7,620.6h-32c-2.2,0-4-1.8-4-4v-72c0-2.2,1.8-4,4-4h32c2.2,0,4,1.8,4,4v72    C143.7,618.8,141.9,620.6,139.7,620.6z"></path>
		<path fill="#F5F5F5" d="M89.7,620.6h-32c-2.2,0-4-1.8-4-4v-72c0-2.2,1.8-4,4-4h32c2.2,0,4,1.8,4,4v72    C93.7,618.8,91.9,620.6,89.7,620.6z"></path>
		<path fill="#F5F5F5" d="M139.7,520.1h-32c-2.2,0-4-1.8-4-4v-72c0-2.2,1.8-4,4-4h32c2.2,0,4,1.8,4,4v72    C143.7,518.3,141.9,520.1,139.7,520.1z"></path>
		<path fill="#F5F5F5" d="M89.7,520.1h-32c-2.2,0-4-1.8-4-4v-72c0-2.2,1.8-4,4-4h32c2.2,0,4,1.8,4,4v72    C93.7,518.3,91.9,520.1,89.7,520.1z"></path>
		<path fill="#F5F5F5" d="M139.7,419.6h-32c-2.2,0-4-1.8-4-4v-72c0-2.2,1.8-4,4-4h32c2.2,0,4,1.8,4,4v72    C143.7,417.8,141.9,419.6,139.7,419.6z"></path>
		<path fill="#F5F5F5" d="M89.7,419.6h-32c-2.2,0-4-1.8-4-4v-72c0-2.2,1.8-4,4-4h32c2.2,0,4,1.8,4,4v72    C93.7,417.8,91.9,419.6,89.7,419.6z"></path>
	</g>
	<g>
		<path fill="#F0F0F0" d="M276,659.6H84c-2.2,0-4-1.8-4-4v-316h200v316C280,657.8,278.2,659.6,276,659.6z"></path>
		<rect x="120" y="299.5" fill="#F0F0F0" width="120" height="20"></rect>
		<rect x="100" y="319.6" fill="#F0F0F0" width="160" height="20"></rect>
		<path fill="#F5F5F5" d="M251,659.6h-32c-2.2,0-4-1.8-4-4v-72c0-2.2,1.8-4,4-4h32c2.2,0,4,1.8,4,4v72    C255,657.8,253.2,659.6,251,659.6z"></path>
		<path fill="#F5F5F5" d="M196,659.6h-32c-2.2,0-4-1.8-4-4v-72c0-2.2,1.8-4,4-4h32c2.2,0,4,1.8,4,4v72    C200,657.8,198.2,659.6,196,659.6z"></path>
		<path fill="#F5F5F5" d="M141,659.6h-32c-2.2,0-4-1.8-4-4v-72c0-2.2,1.8-4,4-4h32c2.2,0,4,1.8,4,4v72    C145,657.8,143.2,659.6,141,659.6z"></path>
		<path fill="#F5F5F5" d="M251,560.1h-32c-2.2,0-4-1.8-4-4v-72c0-2.2,1.8-4,4-4h32c2.2,0,4,1.8,4,4v72    C255,558.3,253.2,560.1,251,560.1z"></path>
		<path fill="#F5F5F5" d="M196,560.1h-32c-2.2,0-4-1.8-4-4v-72c0-2.2,1.8-4,4-4h32c2.2,0,4,1.8,4,4v72    C200,558.3,198.2,560.1,196,560.1z"></path>
		<path fill="#F5F5F5" d="M141,560.1h-32c-2.2,0-4-1.8-4-4v-72c0-2.2,1.8-4,4-4h32c2.2,0,4,1.8,4,4v72    C145,558.3,143.2,560.1,141,560.1z"></path>
		<path fill="#F5F5F5" d="M251,459.6h-32c-2.2,0-4-1.8-4-4v-72c0-2.2,1.8-4,4-4h32c2.2,0,4,1.8,4,4v72    C255,457.8,253.2,459.6,251,459.6z"></path>
		<path fill="#F5F5F5" d="M196,459.6h-32c-2.2,0-4-1.8-4-4v-72c0-2.2,1.8-4,4-4h32c2.2,0,4,1.8,4,4v72    C200,457.8,198.2,459.6,196,459.6z"></path>
		<path fill="#F5F5F5" d="M141,459.6h-32c-2.2,0-4-1.8-4-4v-72c0-2.2,1.8-4,4-4h32c2.2,0,4,1.8,4,4v72    C145,457.8,143.2,459.6,141,459.6z"></path>
		<polygon fill="#F0F0F0" points="194,299.5 166,299.5 170,279.5 190,279.5   "></polygon>
	</g>
	<g>
		<path fill="#F0F0F0" d="M1256.7,659.6h-122.8c-2.2,0-4-1.8-4-4v-336h130.8v336C1260.7,657.8,1258.9,659.6,1256.7,659.6z"></path>
		<path fill="#F5F5F5" d="M1236.7,620.6h-32c-2.2,0-4-1.8-4-4v-72c0-2.2,1.8-4,4-4h32c2.2,0,4,1.8,4,4v72    C1240.7,618.8,1238.9,620.6,1236.7,620.6z"></path>
		<path fill="#F5F5F5" d="M1186.7,620.6h-32c-2.2,0-4-1.8-4-4v-72c0-2.2,1.8-4,4-4h32c2.2,0,4,1.8,4,4v72    C1190.7,618.8,1188.9,620.6,1186.7,620.6z"></path>
		<path fill="#F5F5F5" d="M1236.7,520.1h-32c-2.2,0-4-1.8-4-4v-72c0-2.2,1.8-4,4-4h32c2.2,0,4,1.8,4,4v72    C1240.7,518.3,1238.9,520.1,1236.7,520.1z"></path>
		<path fill="#F5F5F5" d="M1186.7,520.1h-32c-2.2,0-4-1.8-4-4v-72c0-2.2,1.8-4,4-4h32c2.2,0,4,1.8,4,4v72    C1190.7,518.3,1188.9,520.1,1186.7,520.1z"></path>
		<path fill="#F5F5F5" d="M1236.7,419.6h-32c-2.2,0-4-1.8-4-4v-72c0-2.2,1.8-4,4-4h32c2.2,0,4,1.8,4,4v72    C1240.7,417.8,1238.9,419.6,1236.7,419.6z"></path>
		<path fill="#F5F5F5" d="M1186.7,419.6h-32c-2.2,0-4-1.8-4-4v-72c0-2.2,1.8-4,4-4h32c2.2,0,4,1.8,4,4v72    C1190.7,417.8,1188.9,419.6,1186.7,419.6z"></path>
	</g>
	<g>
		<path fill="#F0F0F0" d="M1894.6,659.6h-192c-2.2,0-4-1.8-4-4v-406h200v406C1898.6,657.8,1896.8,659.6,1894.6,659.6z"></path>
		<rect x="1738.6" y="209.5" fill="#F0F0F0" width="120" height="20"></rect>
		<rect x="1718.6" y="229.6" fill="#F0F0F0" width="160" height="20"></rect>
		<path fill="#F5F5F5" d="M1869.6,570.6h-32c-2.2,0-4-1.8-4-4v-72c0-2.2,1.8-4,4-4h32c2.2,0,4,1.8,4,4v72    C1873.6,568.8,1871.8,570.6,1869.6,570.6z"></path>
		<path fill="#F5F5F5" d="M1814.6,570.6h-32c-2.2,0-4-1.8-4-4v-72c0-2.2,1.8-4,4-4h32c2.2,0,4,1.8,4,4v72    C1818.6,568.8,1816.8,570.6,1814.6,570.6z"></path>
		<path fill="#F5F5F5" d="M1759.6,570.6h-32c-2.2,0-4-1.8-4-4v-72c0-2.2,1.8-4,4-4h32c2.2,0,4,1.8,4,4v72    C1763.6,568.8,1761.8,570.6,1759.6,570.6z"></path>
		<path fill="#F5F5F5" d="M1869.6,470.1h-32c-2.2,0-4-1.8-4-4v-72c0-2.2,1.8-4,4-4h32c2.2,0,4,1.8,4,4v72    C1873.6,468.3,1871.8,470.1,1869.6,470.1z"></path>
		<path fill="#F5F5F5" d="M1814.6,470.1h-32c-2.2,0-4-1.8-4-4v-72c0-2.2,1.8-4,4-4h32c2.2,0,4,1.8,4,4v72    C1818.6,468.3,1816.8,470.1,1814.6,470.1z"></path>
		<path fill="#F5F5F5" d="M1759.6,470.1h-32c-2.2,0-4-1.8-4-4v-72c0-2.2,1.8-4,4-4h32c2.2,0,4,1.8,4,4v72    C1763.6,468.3,1761.8,470.1,1759.6,470.1z"></path>
		<path fill="#F5F5F5" d="M1869.6,369.6h-32c-2.2,0-4-1.8-4-4v-72c0-2.2,1.8-4,4-4h32c2.2,0,4,1.8,4,4v72    C1873.6,367.8,1871.8,369.6,1869.6,369.6z"></path>
		<path fill="#F5F5F5" d="M1814.6,369.6h-32c-2.2,0-4-1.8-4-4v-72c0-2.2,1.8-4,4-4h32c2.2,0,4,1.8,4,4v72    C1818.6,367.8,1816.8,369.6,1814.6,369.6z"></path>
		<path fill="#F5F5F5" d="M1759.6,369.6h-32c-2.2,0-4-1.8-4-4v-72c0-2.2,1.8-4,4-4h32c2.2,0,4,1.8,4,4v72    C1763.6,367.8,1761.8,369.6,1759.6,369.6z"></path>
		<polygon fill="#F0F0F0" points="1812.6,209.5 1784.6,209.5 1788.6,189.5 1808.6,189.5   "></polygon>
	</g>
	<path fill="#FCFCFC" stroke="#8C9BA5" stroke-miterlimit="10" d="M657.2,659.6h-222c-2.2,0-4-1.8-4-4v-502c0-2.2,1.8-4,4-4h222   c2.2,0,4,1.8,4,4v502C661.2,657.8,659.4,659.6,657.2,659.6z"></path>
	<path fill="#FFFFFF" stroke="#8C9BA5" stroke-miterlimit="10" d="M642.2,539.6h-192c-2.2,0-4-1.8-4-4v-342c0-2.2,1.8-4,4-4h192   c2.2,0,4,1.8,4,4v342C646.2,537.8,644.4,539.6,642.2,539.6z"></path>
	<line fill="none" stroke="#8C9BA5" stroke-width="0.5" stroke-miterlimit="10" x1="496.2" y1="189.6" x2="496.2" y2="539.6"></line>
	<line fill="none" stroke="#8C9BA5" stroke-width="0.5" stroke-miterlimit="10" x1="546.2" y1="189.6" x2="546.2" y2="539.6"></line>
	<line fill="none" stroke="#8C9BA5" stroke-width="0.5" stroke-miterlimit="10" x1="596.2" y1="189.6" x2="596.2" y2="539.6"></line>
	<polyline fill="none" stroke="#8C9BA5" stroke-width="0.5" stroke-miterlimit="10" points="546.2,249.6 556.2,249.6 556.2,259.6    566.2,259.6 566.2,269.6 576.2,269.6 576.2,279.6 586.2,279.6 586.2,289.6 596.2,289.6 596.2,299.6 606.2,299.6 606.2,309.6    616.2,309.6 616.2,319.6 626.2,319.6 626.2,329.6 636.2,329.6 636.2,339.6  "></polyline>
	<polyline fill="none" stroke="#8C9BA5" stroke-width="0.5" stroke-miterlimit="10" points="546.2,389.6 536.2,389.6 536.2,399.6    526.2,399.6 526.2,409.6 516.2,409.6 516.2,419.6 506.2,419.6 506.2,429.6 496.2,429.6  "></polyline>
	<line fill="none" stroke="#8C9BA5" stroke-width="0.5" stroke-miterlimit="10" x1="446.2" y1="239.6" x2="646.2" y2="239.6"></line>
	<line fill="none" stroke="#8C9BA5" stroke-width="0.5" stroke-miterlimit="10" x1="446.2" y1="289.6" x2="646.2" y2="289.6"></line>
	<line fill="none" stroke="#8C9BA5" stroke-width="0.5" stroke-miterlimit="10" x1="446.2" y1="339.6" x2="646.2" y2="339.6"></line>
	<line fill="none" stroke="#8C9BA5" stroke-width="0.5" stroke-miterlimit="10" x1="446.2" y1="389.6" x2="646.2" y2="389.6"></line>
	<line fill="none" stroke="#8C9BA5" stroke-width="0.5" stroke-miterlimit="10" x1="446.2" y1="439.6" x2="646.2" y2="439.6"></line>
	<line fill="none" stroke="#8C9BA5" stroke-width="0.5" stroke-miterlimit="10" x1="446.2" y1="489.6" x2="646.2" y2="489.6"></line>
	<rect x="541.2" y="523.5" fill="none" stroke="#8C9BA5" stroke-width="0.5" stroke-miterlimit="10" width="50" height="2"></rect>
	<g>
		<line fill="none" stroke="#8C9BA5" stroke-width="0.5" stroke-miterlimit="10" x1="574.2" y1="525.5" x2="581.2" y2="539.6"></line>
		<line fill="none" stroke="#8C9BA5" stroke-width="0.5" stroke-miterlimit="10" x1="558.1" y1="525.5" x2="551.2" y2="539.6"></line>
	</g>
	<g>
		<path fill="none" stroke="#8C9BA5" stroke-width="0.5" stroke-miterlimit="10" d="M606.1,513.4c0,0-2.3-0.2-2.7-2    c-0.4-2.2,2.1-3.3,2.1-3.3l0.5,4.4"></path>
		<path fill="none" stroke="#8C9BA5" stroke-width="0.5" stroke-miterlimit="10" d="M606.2,514.3l1.6,12.6c0,0,0.4,3.9-4.6,3.9    s-12.1,0-12.1,0"></path>
		<line fill="none" stroke="#8C9BA5" stroke-width="0.5" stroke-miterlimit="10" x1="593.9" y1="539.6" x2="599.2" y2="534.4"></line>
		<line fill="none" stroke="#8C9BA5" stroke-width="0.5" stroke-miterlimit="10" x1="604.5" y1="539.6" x2="599.2" y2="534.4"></line>
		<line fill="none" stroke="#8C9BA5" stroke-width="0.5" stroke-miterlimit="10" x1="599.2" y1="530.7" x2="599.2" y2="539.6"></line>
	</g>
	<g>
		<path fill="none" stroke="#8C9BA5" stroke-width="0.5" stroke-miterlimit="10" d="M526.2,513.4c0,0,2.3-0.2,2.7-2    c0.4-2.2-2.1-3.3-2.1-3.3l-0.5,4.4"></path>
		<path fill="none" stroke="#8C9BA5" stroke-width="0.5" stroke-miterlimit="10" d="M526.1,514.3l-1.6,12.6c0,0-0.4,3.9,4.6,3.9    s12.1,0,12.1,0"></path>
		<line fill="none" stroke="#8C9BA5" stroke-width="0.5" stroke-miterlimit="10" x1="538.4" y1="539.6" x2="533.1" y2="534.4"></line>
		<line fill="none" stroke="#8C9BA5" stroke-width="0.5" stroke-miterlimit="10" x1="527.8" y1="539.6" x2="533.1" y2="534.4"></line>
		<line fill="none" stroke="#8C9BA5" stroke-width="0.5" stroke-miterlimit="10" x1="533.1" y1="530.7" x2="533.1" y2="539.6"></line>
	</g>
	<path fill="#F5F5F5" stroke="#8C9BA5" stroke-miterlimit="10" d="M437.1,659.6h-272c-2.2,0-4-1.8-4-4v-12c0-2.2,1.8-4,4-4h272   c2.2,0,4,1.8,4,4v12C441.1,657.8,439.3,659.6,437.1,659.6z"></path>
	<path fill="none" stroke="#8C9BA5" stroke-miterlimit="10" d="M181.1,437.6v-11c0-2.2,1.8-4,4-4h232c2.2,0,4,1.8,4,4v11"></path>
	<rect x="181.1" y="499" fill="#FFFFFF" stroke="#8C9BA5" stroke-miterlimit="10" width="240" height="140.6"></rect>
	<path fill="none" stroke="#8C9BA5" stroke-miterlimit="10" d="M391.1,557.3h-56c-1.1,0-2-0.9-2-2v-56c0-1.1,0.9-2,2-2h56   c1.1,0,2,0.9,2,2v56C393.1,556.4,392.2,557.3,391.1,557.3z"></path>
	<line fill="none" stroke="#8C9BA5" stroke-width="0.5" stroke-miterlimit="10" x1="333.1" y1="527.3" x2="393.1" y2="527.3"></line>
	<line fill="none" stroke="#8C9BA5" stroke-width="0.5" stroke-miterlimit="10" x1="363.1" y1="557.3" x2="363.1" y2="497.3"></line>
	<path fill="#F5F5F5" d="M181.1,521.6c0.3,0,0.7,0.1,1,0.1c9.4,0,17-7.6,17-17c0,9.4,7.6,17,17,17s17-7.6,17-17c0,9.4,7.6,17,17,17   s17-7.6,17-17c0,9.4,7.6,17,17,17s17-7.6,17-17c0,9.4,7.6,17,17,17s17-7.6,17-17c0,9.4,7.6,17,17,17s17-7.6,17-17   c0,9.4,7.6,17,17,17s17-7.6,17-17c0,9.4,7.6,17,17,17c0.3,0,0.7,0,1-0.1V494h-240V521.6z"></path>
	<path fill="#FFFFFF" stroke="#8C9BA5" stroke-miterlimit="10" d="M437.1,459.6v40c0,9.4-7.6,17-17,17s-17-7.6-17-17v-40"></path>
	<path fill="#FFFFFF" stroke="#8C9BA5" stroke-miterlimit="10" d="M403.1,459.6v40c0,9.4-7.6,17-17,17s-17-7.6-17-17v-40"></path>
	<path fill="#FFFFFF" stroke="#8C9BA5" stroke-miterlimit="10" d="M369.1,459.6v40c0,9.4-7.6,17-17,17s-17-7.6-17-17v-40"></path>
	<path fill="#FFFFFF" stroke="#8C9BA5" stroke-miterlimit="10" d="M335.1,459.6v40c0,9.4-7.6,17-17,17s-17-7.6-17-17v-40"></path>
	<path fill="#FFFFFF" stroke="#8C9BA5" stroke-miterlimit="10" d="M301.1,459.6v40c0,9.4-7.6,17-17,17s-17-7.6-17-17v-40"></path>
	<path fill="#FFFFFF" stroke="#8C9BA5" stroke-miterlimit="10" d="M267.1,459.6v40c0,9.4-7.6,17-17,17s-17-7.6-17-17v-40"></path>
	<path fill="#FFFFFF" stroke="#8C9BA5" stroke-miterlimit="10" d="M233.1,459.6v40c0,9.4-7.6,17-17,17s-17-7.6-17-17v-40"></path>
	<path fill="#FFFFFF" stroke="#8C9BA5" stroke-miterlimit="10" d="M199.1,459.6v40c0,9.4-7.6,17-17,17s-17-7.6-17-17v-40"></path>
	<line fill="none" stroke="#8C9BA5" stroke-miterlimit="10" x1="391.1" y1="422.6" x2="391.1" y2="437.6"></line>
	<line fill="none" stroke="#8C9BA5" stroke-miterlimit="10" x1="361.1" y1="422.6" x2="361.1" y2="437.6"></line>
	<line fill="none" stroke="#8C9BA5" stroke-miterlimit="10" x1="331.1" y1="422.6" x2="331.1" y2="437.6"></line>
	<line fill="none" stroke="#8C9BA5" stroke-miterlimit="10" x1="301.1" y1="422.6" x2="301.1" y2="437.6"></line>
	<line fill="none" stroke="#8C9BA5" stroke-miterlimit="10" x1="271.1" y1="422.6" x2="271.1" y2="437.6"></line>
	<line fill="none" stroke="#8C9BA5" stroke-miterlimit="10" x1="241.1" y1="422.6" x2="241.1" y2="437.6"></line>
	<line fill="none" stroke="#8C9BA5" stroke-miterlimit="10" x1="211.1" y1="422.6" x2="211.1" y2="437.6"></line>
	<polygon fill="#F5F5F5" stroke="#8C9BA5" stroke-miterlimit="10" points="421.1,437.6 437.1,459.6 165.1,459.6 181.1,437.6  "></polygon>
	<path fill="none" stroke="#8C9BA5" stroke-miterlimit="10" d="M258.6,639.6h-50v-78c0-1.1,0.9-2,2-2h46c1.1,0,2,0.9,2,2V639.6z"></path>
	<line fill="none" stroke="#8C9BA5" stroke-width="0.5" stroke-miterlimit="10" x1="233.6" y1="559.6" x2="233.6" y2="639.6"></line>
	<rect x="236.6" y="596.4" fill="none" stroke="#8C9BA5" stroke-width="0.5" stroke-miterlimit="10" width="1.5" height="14"></rect>
	<rect x="229.1" y="596.4" fill="none" stroke="#8C9BA5" stroke-width="0.5" stroke-miterlimit="10" width="1.5" height="14"></rect>
	<line fill="none" stroke="#8C9BA5" stroke-width="0.5" stroke-miterlimit="10" x1="391.1" y1="437.6" x2="403.1" y2="459.6"></line>
	<line fill="none" stroke="#8C9BA5" stroke-width="0.5" stroke-miterlimit="10" x1="361.1" y1="437.6" x2="369.1" y2="459.6"></line>
	<line fill="none" stroke="#8C9BA5" stroke-width="0.5" stroke-miterlimit="10" x1="331.1" y1="437.6" x2="335.1" y2="459.6"></line>
	<line fill="none" stroke="#8C9BA5" stroke-width="0.5" stroke-miterlimit="10" x1="301.1" y1="437.6" x2="301.1" y2="459.6"></line>
	<line fill="none" stroke="#8C9BA5" stroke-width="0.5" stroke-miterlimit="10" x1="271.1" y1="437.6" x2="267.1" y2="459.6"></line>
	<line fill="none" stroke="#8C9BA5" stroke-width="0.5" stroke-miterlimit="10" x1="241.1" y1="437.6" x2="233.1" y2="459.6"></line>
	<line fill="none" stroke="#8C9BA5" stroke-width="0.5" stroke-miterlimit="10" x1="211.1" y1="437.6" x2="199.1" y2="459.6"></line>
	<rect x="501.2" y="294.6" fill="none" stroke="#8C9BA5" stroke-width="0.5" stroke-miterlimit="10" width="40" height="40"></rect>
	<polyline fill="none" stroke="#8C9BA5" stroke-width="0.5" stroke-miterlimit="10" points="507.6,322.4 517.9,312.1 523.7,317.9    534.7,306.9  "></polyline>
	<polygon fill="#F5F5F5" stroke="#8C9BA5" stroke-miterlimit="10" points="661.2,432.6 941.2,526.6 941.2,516.6 661.2,422.6  "></polygon>
	<polygon fill="#FFFFFF" stroke="#8C9BA5" stroke-miterlimit="10" points="921.2,519.9 921.2,659.6 661.2,659.6 661.2,432.6  "></polygon>
	<path fill="#FFFFFF" stroke="#8C9BA5" stroke-width="0.5" stroke-miterlimit="10" d="M899.2,589.6h-56c-1.1,0-2-0.9-2-2v-46   c0-1.1,0.9-2,2-2h56c1.1,0,2,0.9,2,2v46C901.2,588.7,900.3,589.6,899.2,589.6z"></path>
	<path fill="#FFFFFF" stroke="#8C9BA5" stroke-width="0.5" stroke-miterlimit="10" d="M829.2,589.6h-56c-1.1,0-2-0.9-2-2v-46   c0-1.1,0.9-2,2-2h56c1.1,0,2,0.9,2,2v46C831.2,588.7,830.3,589.6,829.2,589.6z"></path>
	<g>
		<path fill="#FFFFFF" stroke="#8C9BA5" stroke-miterlimit="10" d="M1008.8,648.8h56c1.1,0,2-0.9,2-2v-56c0-1.1-0.9-2-2-2h-28    c-16.6,0-30,13.4-30,30v28C1006.8,647.9,1007.7,648.8,1008.8,648.8z"></path>
		<line fill="none" stroke="#8C9BA5" stroke-width="0.5" stroke-miterlimit="10" x1="1035.8" y1="633.7" x2="1030.3" y2="633.7"></line>
		<path fill="#FFFFFF" stroke="#8C9BA5" stroke-width="0.5" stroke-miterlimit="10" d="M1013.6,628.7h22.2l25.8-33.7h-24.1    c-14.1,0-25.6,11.5-25.6,25.6v6.4C1011.9,627.9,1012.7,628.7,1013.6,628.7z"></path>
		<path fill="#FCFCFC" stroke="#8C9BA5" stroke-miterlimit="10" d="M1080.8,648.8h152c2.2,0,4-1.8,4-4v-72c0-2.2-1.8-4-4-4h-152    c-2.2,0-4,1.8-4,4v72C1076.8,647,1078.6,648.8,1080.8,648.8z"></path>
		<line fill="none" stroke="#8C9BA5" stroke-width="0.5" stroke-miterlimit="10" x1="1014.8" y1="620.7" x2="1020.9" y2="626.8"></line>
		<g>
			<path fill="none" stroke="#8C9BA5" stroke-width="0.5" stroke-miterlimit="10" d="M1161.4,603.5v-15.9c0-1.9-1.5-3.4-3.4-3.4     h-27.8c-1.9,0-3.4,1.5-3.4,3.4v19.3c0,4.3,3.5,7.8,7.8,7.8v-7.8h23.4C1159.8,606.9,1161.4,605.4,1161.4,603.5z"></path>
			<circle fill="none" stroke="#8C9BA5" stroke-width="0.5" stroke-miterlimit="10" cx="1136.2" cy="595.5" r="2.5"></circle>
			<circle fill="none" stroke="#8C9BA5" stroke-width="0.5" stroke-miterlimit="10" cx="1144.1" cy="595.5" r="2.5"></circle>
			<circle fill="none" stroke="#8C9BA5" stroke-width="0.5" stroke-miterlimit="10" cx="1151.9" cy="595.5" r="2.5"></circle>
			<path fill="none" stroke="#8C9BA5" stroke-width="0.5" stroke-miterlimit="10" d="M1152.2,611.7v10.5c0,1.9,1.5,3.4,3.4,3.4h23.4     v7.8c4.3,0,7.8-3.5,7.8-7.8v-19.3c0-1.9-1.5-3.4-3.4-3.4h-17"></path>
			<circle fill="none" stroke="#8C9BA5" stroke-width="0.5" stroke-miterlimit="10" cx="1161.6" cy="614.3" r="2.5"></circle>
			<circle fill="none" stroke="#8C9BA5" stroke-width="0.5" stroke-miterlimit="10" cx="1169.5" cy="614.3" r="2.5"></circle>
			<circle fill="none" stroke="#8C9BA5" stroke-width="0.5" stroke-miterlimit="10" cx="1177.3" cy="614.3" r="2.5"></circle>
		</g>
		<path fill="#F5F5F5" stroke="#8C9BA5" stroke-miterlimit="10" d="M1068.7,648.9h173.7c1,0,1.8-0.9,1.8-2v-5.3c0-1.1-0.8-2-1.8-2    h-173.7c-1,0-1.8,0.9-1.8,2v5.3C1067,648,1067.8,648.9,1068.7,648.9z"></path>
		<circle fill="#F5F5F5" stroke="#8C9BA5" stroke-miterlimit="10" cx="1050.8" cy="647.6" r="12"></circle>
		<circle fill="#F5F5F5" stroke="#8C9BA5" stroke-miterlimit="10" cx="1178.8" cy="647.6" r="12"></circle>
		<circle fill="#F5F5F5" stroke="#8C9BA5" stroke-miterlimit="10" cx="1204.8" cy="647.6" r="12"></circle>
	</g>
	<path fill="none" stroke="#8C9BA5" stroke-miterlimit="10" d="M746.2,659.6h-60v-118c0-1.1,0.9-2,2-2h56c1.1,0,2,0.9,2,2V659.6z"></path>
	<line fill="none" stroke="#8C9BA5" stroke-width="0.5" stroke-miterlimit="10" x1="716.2" y1="539.6" x2="716.2" y2="557.1"></line>
	<path fill="none" stroke="#8C9BA5" stroke-width="0.5" stroke-miterlimit="10" d="M721.7,562.6h-11.2c0-3.1,2.5-5.6,5.6-5.6   C719.2,557,721.7,559.5,721.7,562.6z"></path>
	<g>
		<path fill="none" stroke="#8C9BA5" stroke-width="0.5" stroke-miterlimit="10" d="M559.4,120.7c9.4-5.8,17.1-7.8,20.2-4.7    c2.2,2.2,1.9,6.7-0.6,12.5"></path>
		<ellipse fill="#FFFFFF" stroke="#8C9BA5" stroke-width="0.5" stroke-miterlimit="10" cx="546.2" cy="149.6" rx="29.7" ry="29.8"></ellipse>
		<path fill="#FFFFFF" stroke="#8C9BA5" stroke-width="0.5" stroke-miterlimit="10" d="M532.9,149.6c0,11.8,5.1,22.5,13.3,29.8    c8.2-7.3,13.3-18,13.3-29.8s-5.1-22.5-13.3-29.8C538,127.2,532.9,137.8,532.9,149.6z"></path>
		<line fill="none" stroke="#8C9BA5" stroke-width="0.5" stroke-miterlimit="10" x1="516.4" y1="149.6" x2="575.9" y2="149.6"></line>
		<line fill="none" stroke="#8C9BA5" stroke-width="0.5" stroke-miterlimit="10" x1="520.6" y1="134.7" x2="571.8" y2="134.7"></line>
		<g>
			<path fill="#FFFFFF" stroke="#8C9BA5" stroke-width="0.5" stroke-miterlimit="10" d="M577.8,132.3c0,0-5.3-0.9-8.1,2.8     c-2.8,3.7-4.4,5.8-4.4,5.8l-3,0.4l-5.4,7.1l4.5-0.5l5.9,4.7l0.6,4.6l5.4-7.1l-0.4-3.1c0,0,1.5-2,4.4-5.8     C579.9,137.4,577.8,132.3,577.8,132.3z"></path>
			<polygon fill="#FFFFFF" stroke="#8C9BA5" stroke-width="0.5" stroke-miterlimit="10" points="564.6,153.9 560.6,150.7      557.6,158.5    "></polygon>
			<path fill="#FFFFFF" stroke="#8C9BA5" stroke-width="0.5" stroke-miterlimit="10" d="M567.9,147.2c-0.4,0.5-1.1,0.6-1.5,0.2l0,0     c-0.5-0.4-0.6-1.1-0.2-1.6l4.4-5.9c0.4-0.5,1.1-0.6,1.5-0.2l0,0c0.5,0.4,0.6,1.1,0.2,1.6L567.9,147.2z"></path>
			
				<ellipse transform="matrix(-0.121 -0.9927 0.9927 -0.121 506.9733 723.7441)" fill="#FFFFFF" stroke="#8C9BA5" stroke-width="0.5" stroke-miterlimit="10" cx="573.928" cy="137.407" rx="1.3" ry="1.2"></ellipse>
		</g>
		<line fill="none" stroke="#8C9BA5" stroke-width="0.5" stroke-miterlimit="10" x1="520.6" y1="164.5" x2="571.8" y2="164.5"></line>
		<path fill="none" stroke="#8C9BA5" stroke-width="0.5" stroke-miterlimit="10" d="M556.2,159.7c-18.5,18.6-38,29.1-43.5,23.6    c-3.1-3.1-1.2-10.6,4.4-19.8"></path>
	</g>
	<path fill="none" stroke="#8C9BA5" stroke-miterlimit="10" d="M1865.7,145.4h-20.4c-1.7-7.5-8.4-13.1-16.4-13.1   c-1.8,0-3.5,0.3-5,0.8c-3.5-12.4-14.9-21.5-28.4-21.5c-16.3,0-29.5,13.2-29.5,29.5c0,1.5,0.1,2.9,0.3,4.4h-20.5"></path>
	<path fill="none" stroke="#8C9BA5" stroke-miterlimit="10" d="M421.1,249.3h-24.2c-2-8.9-10-15.5-19.5-15.5c-2.1,0-4.1,0.3-6,0.9   c-4.1-14.7-17.6-25.5-33.7-25.5c-19.3,0-35,15.7-35,35c0,1.8,0.1,3.5,0.4,5.2h-24.3"></path>
	<path fill="none" stroke="#8C9BA5" stroke-miterlimit="10" d="M1201.5,196.5h20.6c1.7-7.6,8.5-13.2,16.6-13.2   c1.8,0,3.5,0.3,5.1,0.8c3.5-12.6,15-21.8,28.7-21.8c16.5,0,29.8,13.4,29.8,29.8c0,1.5-0.1,3-0.3,4.4h20.7"></path>
	<path fill="none" stroke="#8C9BA5" stroke-miterlimit="10" style="transform: translate(0,200px)" d="M797.7,154.8h24.2c2-8.9,10-15.5,19.5-15.5c2.1,0,4.1,0.3,6,0.9   c4.1-14.7,17.6-25.5,33.7-25.5c19.3,0,35,15.7,35,35c0,1.8-0.1,3.5-0.4,5.2H940"></path>
	<path fill="#F5F5F5" stroke="#8C9BA5" stroke-miterlimit="10" d="M1482.6,239.6h-192c-2.2,0-4-1.8-4-4v-42c0-2.2,1.8-4,4-4h192   c2.2,0,4,1.8,4,4v42C1486.6,237.8,1484.8,239.6,1482.6,239.6z"></path>
	<path fill="#FFFFFF" stroke="#8C9BA5" stroke-width="0.5" stroke-miterlimit="10" d="M1474.6,229.6h-176c-1.1,0-2-0.9-2-2v-26   c0-1.1,0.9-2,2-2h176c1.1,0,2,0.9,2,2v26C1476.6,228.7,1475.7,229.6,1474.6,229.6z"></path>
	<path fill="#FCFCFC" stroke="#8C9BA5" stroke-miterlimit="10" d="M1482.6,659.6h-192c-2.2,0-4-1.8-4-4v-406h200v406   C1486.6,657.8,1484.8,659.6,1482.6,659.6z"></path>
	<rect x="1255.6" y="429.6" fill="#FFFFFF" stroke="#8C9BA5" stroke-miterlimit="10" width="12" height="230"></rect>
	<rect x="1271.6" y="249.6" fill="#F5F5F5" stroke="#8C9BA5" stroke-miterlimit="10" width="230" height="20"></rect>
	<line fill="none" stroke="#8C9BA5" stroke-miterlimit="10" x1="1456.6" y1="239.6" x2="1456.6" y2="249.6"></line>
	<line fill="none" stroke="#8C9BA5" stroke-miterlimit="10" x1="1316.6" y1="239.6" x2="1316.6" y2="249.6"></line>
	<path fill="#FFFFFF" stroke="#8C9BA5" stroke-width="0.5" stroke-miterlimit="10" d="M1462.6,569.6h-152c-2.2,0-4-1.8-4-4v-72   c0-2.2,1.8-4,4-4h152c2.2,0,4,1.8,4,4v72C1466.6,567.8,1464.8,569.6,1462.6,569.6z"></path>
	<path fill="#FFFFFF" stroke="#8C9BA5" stroke-width="0.5" stroke-miterlimit="10" d="M1462.6,469.6h-152c-2.2,0-4-1.8-4-4v-72   c0-2.2,1.8-4,4-4h152c2.2,0,4,1.8,4,4v72C1466.6,467.8,1464.8,469.6,1462.6,469.6z"></path>
	<path fill="#FFFFFF" stroke="#8C9BA5" stroke-width="0.5" stroke-miterlimit="10" d="M1462.6,369.6h-152c-2.2,0-4-1.8-4-4v-72   c0-2.2,1.8-4,4-4h152c2.2,0,4,1.8,4,4v72C1466.6,367.8,1464.8,369.6,1462.6,369.6z"></path>
	<line fill="none" stroke="#8C9BA5" stroke-width="0.5" stroke-miterlimit="10" x1="1372.5" y1="447.4" x2="1376.9" y2="464.2"></line>
	<path fill="none" stroke="#8C9BA5" stroke-width="0.5" stroke-miterlimit="10" d="M1375.9,460.2c0,0-2.6,0.4-2.6,2.8s0,6.6,0,6.6"></path>
	<line fill="none" stroke="#8C9BA5" stroke-width="0.5" stroke-miterlimit="10" x1="1360.8" y1="447.4" x2="1356.4" y2="464.2"></line>
	<path fill="none" stroke="#8C9BA5" stroke-width="0.5" stroke-miterlimit="10" d="M1357.5,460.2c0,0,2.6,0.4,2.6,2.8s0,6.6,0,6.6"></path>
	<line fill="none" stroke="#8C9BA5" stroke-width="0.5" stroke-miterlimit="10" x1="1433.1" y1="447.4" x2="1437.5" y2="464.2"></line>
	<path fill="none" stroke="#8C9BA5" stroke-width="0.5" stroke-miterlimit="10" d="M1436.5,460.2c0,0-2.6,0.4-2.6,2.8s0,6.6,0,6.6"></path>
	<line fill="none" stroke="#8C9BA5" stroke-width="0.5" stroke-miterlimit="10" x1="1421.4" y1="447.4" x2="1417" y2="464.2"></line>
	<path fill="none" stroke="#8C9BA5" stroke-width="0.5" stroke-miterlimit="10" d="M1418.1,460.2c0,0,2.6,0.4,2.6,2.8s0,6.6,0,6.6"></path>
	<rect x="1450" y="455.6" fill="none" stroke="#8C9BA5" stroke-width="0.5" stroke-miterlimit="10" width="1.5" height="14"></rect>
	<rect x="1448.5" y="455.6" fill="none" stroke="#8C9BA5" stroke-width="0.5" stroke-miterlimit="10" width="1.5" height="14"></rect>
	<rect x="1447" y="455.6" fill="none" stroke="#8C9BA5" stroke-width="0.5" stroke-miterlimit="10" width="1.5" height="14"></rect>
	<line fill="none" stroke="#8C9BA5" stroke-width="0.5" stroke-miterlimit="10" x1="1406.5" y1="547.4" x2="1410.9" y2="564.2"></line>
	<path fill="none" stroke="#8C9BA5" stroke-width="0.5" stroke-miterlimit="10" d="M1409.9,560.2c0,0-2.6,0.4-2.6,2.8   c0,2.4,0,6.6,0,6.6"></path>
	<line fill="none" stroke="#8C9BA5" stroke-width="0.5" stroke-miterlimit="10" x1="1394.8" y1="547.4" x2="1390.4" y2="564.2"></line>
	<path fill="none" stroke="#8C9BA5" stroke-width="0.5" stroke-miterlimit="10" d="M1391.5,560.2c0,0,2.6,0.4,2.6,2.8   c0,2.4,0,6.6,0,6.6"></path>
	<line fill="none" stroke="#8C9BA5" stroke-width="0.5" stroke-miterlimit="10" x1="1339.6" y1="500.3" x2="1318" y2="521.9"></line>
	<line fill="none" stroke="#8C9BA5" stroke-width="0.5" stroke-miterlimit="10" x1="1330.2" y1="498.3" x2="1320.3" y2="508.3"></line>
	<line fill="none" stroke="#8C9BA5" stroke-width="0.5" stroke-miterlimit="10" x1="1455.6" y1="296.6" x2="1434" y2="318.2"></line>
	<line fill="none" stroke="#8C9BA5" stroke-width="0.5" stroke-miterlimit="10" x1="1446.2" y1="294.7" x2="1436.3" y2="304.6"></line>
	<rect x="1423.4" y="555.6" fill="none" stroke="#8C9BA5" stroke-width="0.5" stroke-miterlimit="10" width="1.5" height="14"></rect>
	<rect x="1421.9" y="555.6" fill="none" stroke="#8C9BA5" stroke-width="0.5" stroke-miterlimit="10" width="1.5" height="14"></rect>
	<rect x="1420.4" y="555.6" fill="none" stroke="#8C9BA5" stroke-width="0.5" stroke-miterlimit="10" width="1.5" height="14"></rect>
	<g>
		<path fill="#FFFFFF" stroke="#8C9BA5" stroke-width="0.5" stroke-miterlimit="10" d="M1390.4,200.1v-13.3c0-1.6-1.3-2.8-2.8-2.8    h-23.2c-1.6,0-2.8,1.3-2.8,2.8v16.1c0,3.6,2.9,6.5,6.5,6.5v-6.5h19.5C1389.1,203,1390.4,201.7,1390.4,200.1z"></path>
		<circle fill="#FFFFFF" stroke="#8C9BA5" stroke-width="0.5" stroke-miterlimit="10" cx="1369.5" cy="193.5" r="2.1"></circle>
		<circle fill="#FFFFFF" stroke="#8C9BA5" stroke-width="0.5" stroke-miterlimit="10" cx="1376" cy="193.5" r="2.1"></circle>
		<circle fill="#FFFFFF" stroke="#8C9BA5" stroke-width="0.5" stroke-miterlimit="10" cx="1382.5" cy="193.5" r="2.1"></circle>
		<path fill="none" stroke="#8C9BA5" stroke-width="0.5" stroke-miterlimit="10" d="M1382.8,207v8.8c0,1.6,1.3,2.8,2.8,2.8h19.5v6.5    c3.6,0,6.5-2.9,6.5-6.5v-16.1c0-1.6-1.3-2.8-2.8-2.8h-14.2"></path>
		<circle fill="#FFFFFF" stroke="#8C9BA5" stroke-width="0.5" stroke-miterlimit="10" cx="1390.6" cy="209.1" r="2.1"></circle>
		<circle fill="#FFFFFF" stroke="#8C9BA5" stroke-width="0.5" stroke-miterlimit="10" cx="1397.2" cy="209.1" r="2.1"></circle>
		<circle fill="#FFFFFF" stroke="#8C9BA5" stroke-width="0.5" stroke-miterlimit="10" cx="1403.7" cy="209.1" r="2.1"></circle>
	</g>
	<circle fill="#FFFFFF" stroke="#8C9BA5" stroke-miterlimit="10" cx="1631.6" cy="349.6" r="55"></circle>
	<path fill="#FFFFFF" stroke="#8C9BA5" stroke-miterlimit="10" d="M1762.6,659.6h-262c-2.2,0-4-1.8-4-4v-266h270v266   C1766.6,657.8,1764.8,659.6,1762.6,659.6z"></path>
	<path fill="#F5F5F5" stroke="#8C9BA5" stroke-miterlimit="10" d="M1276.6,523.8v72c0,2.2-1.8,4-4,4h-22c-2.2,0-4-1.8-4-4v-72   c0-2.2,1.8-4,4-4h22C1274.8,519.8,1276.6,521.6,1276.6,523.8z"></path>
	<rect x="1536.6" y="349.6" fill="#F5F5F5" stroke="#8C9BA5" stroke-miterlimit="10" width="190" height="20"></rect>
	<rect x="1516.6" y="369.6" fill="#F5F5F5" stroke="#8C9BA5" stroke-miterlimit="10" width="230" height="20"></rect>
	<path fill="#FFFFFF" stroke="#8C9BA5" stroke-miterlimit="10" d="M1681.6,577.5c0-27.6-22.4-50-50-50s-50,22.4-50,50v82.1h100   V577.5z"></path>
	<path fill="#F5F5F5" d="M1581.6,577.5v5.3c1,0.3,2,0.5,3.1,0.5c5.2,0,9.4-4.2,9.4-9.4c0,5.2,4.2,9.4,9.4,9.4c5.2,0,9.4-4.2,9.4-9.4   c0,5.2,4.2,9.4,9.4,9.4c5.2,0,9.4-4.2,9.4-9.4c0,5.2,4.2,9.4,9.4,9.4c5.2,0,9.4-4.2,9.4-9.4c0,5.2,4.2,9.4,9.4,9.4   c5.2,0,9.4-4.2,9.4-9.4c0,5.2,4.2,9.4,9.4,9.4c1.1,0,2.1-0.2,3.1-0.5v-5.3c0-2.8-0.2-5.5-0.7-8.2h-98.7   C1581.8,572,1581.6,574.7,1581.6,577.5z"></path>
	<path fill="#F5F5F5" stroke="#8C9BA5" stroke-width="0.5" stroke-miterlimit="10" d="M1706.6,567.4v4.6c0,5.2-4.2,9.4-9.4,9.4   c-5.2,0-9.4-4.2-9.4-9.4c0,5.2-4.2,9.4-9.4,9.4c-5.2,0-9.4-4.2-9.4-9.4c0,5.2-4.2,9.4-9.4,9.4c-5.2,0-9.4-4.2-9.4-9.4   c0,5.2-4.2,9.4-9.4,9.4c-5.2,0-9.4-4.2-9.4-9.4c0,5.2-4.2,9.4-9.4,9.4c-5.2,0-9.4-4.2-9.4-9.4c0,5.2-4.2,9.4-9.4,9.4   c-5.2,0-9.4-4.2-9.4-9.4c0,5.2-4.2,9.4-9.4,9.4c-5.2,0-9.4-4.2-9.4-9.4c0,5.2-4.2,9.4-9.4,9.4c-5.2,0-9.4-4.2-9.4-9.4v-4.6H1706.6z   "></path>
	<g>
		<line fill="none" stroke="#8C9BA5" stroke-width="0.5" stroke-miterlimit="10" x1="1631.6" y1="571.9" x2="1631.6" y2="659.6"></line>
		<rect x="1634.6" y="616.4" fill="none" stroke="#8C9BA5" stroke-width="0.5" stroke-miterlimit="10" width="1.5" height="14"></rect>
		<rect x="1627.1" y="616.4" fill="none" stroke="#8C9BA5" stroke-width="0.5" stroke-miterlimit="10" width="1.5" height="14"></rect>
	</g>
	<g>
		<path fill="#FFFFFF" stroke="#8C9BA5" stroke-width="0.5" stroke-miterlimit="10" d="M1744.6,479.6h-56c-1.1,0-2-0.9-2-2v-46    c0-1.1,0.9-2,2-2h56c1.1,0,2,0.9,2,2v46C1746.6,478.7,1745.7,479.6,1744.6,479.6z"></path>
		<line fill="none" stroke="#8C9BA5" stroke-width="0.5" stroke-miterlimit="10" x1="1686.6" y1="439.6" x2="1746.6" y2="439.6"></line>
		<line fill="none" stroke="#8C9BA5" stroke-width="0.5" stroke-miterlimit="10" x1="1734.6" y1="439.6" x2="1734.6" y2="429.6"></line>
		<line fill="none" stroke="#8C9BA5" stroke-width="0.5" stroke-miterlimit="10" x1="1722.6" y1="439.6" x2="1722.6" y2="429.6"></line>
		<line fill="none" stroke="#8C9BA5" stroke-width="0.5" stroke-miterlimit="10" x1="1710.6" y1="439.6" x2="1710.6" y2="429.6"></line>
		<line fill="none" stroke="#8C9BA5" stroke-width="0.5" stroke-miterlimit="10" x1="1698.6" y1="439.6" x2="1698.6" y2="429.6"></line>
	</g>
	<g>
		<path fill="#FFFFFF" stroke="#8C9BA5" stroke-width="0.5" stroke-miterlimit="10" d="M1659.6,479.6h-56c-1.1,0-2-0.9-2-2v-46    c0-1.1,0.9-2,2-2h56c1.1,0,2,0.9,2,2v46C1661.6,478.7,1660.7,479.6,1659.6,479.6z"></path>
		<line fill="none" stroke="#8C9BA5" stroke-width="0.5" stroke-miterlimit="10" x1="1601.6" y1="439.6" x2="1661.6" y2="439.6"></line>
		<line fill="none" stroke="#8C9BA5" stroke-width="0.5" stroke-miterlimit="10" x1="1649.6" y1="439.6" x2="1649.6" y2="429.6"></line>
		<line fill="none" stroke="#8C9BA5" stroke-width="0.5" stroke-miterlimit="10" x1="1637.6" y1="439.6" x2="1637.6" y2="429.6"></line>
		<line fill="none" stroke="#8C9BA5" stroke-width="0.5" stroke-miterlimit="10" x1="1625.6" y1="439.6" x2="1625.6" y2="429.6"></line>
		<line fill="none" stroke="#8C9BA5" stroke-width="0.5" stroke-miterlimit="10" x1="1613.6" y1="439.6" x2="1613.6" y2="429.6"></line>
	</g>
	<g>
		<path fill="#FFFFFF" stroke="#8C9BA5" stroke-width="0.5" stroke-miterlimit="10" d="M1574.6,479.6h-56c-1.1,0-2-0.9-2-2v-46    c0-1.1,0.9-2,2-2h56c1.1,0,2,0.9,2,2v46C1576.6,478.7,1575.7,479.6,1574.6,479.6z"></path>
		<line fill="none" stroke="#8C9BA5" stroke-width="0.5" stroke-miterlimit="10" x1="1516.6" y1="439.6" x2="1576.6" y2="439.6"></line>
		<line fill="none" stroke="#8C9BA5" stroke-width="0.5" stroke-miterlimit="10" x1="1564.6" y1="439.6" x2="1564.6" y2="429.6"></line>
		<line fill="none" stroke="#8C9BA5" stroke-width="0.5" stroke-miterlimit="10" x1="1552.6" y1="439.6" x2="1552.6" y2="429.6"></line>
		<line fill="none" stroke="#8C9BA5" stroke-width="0.5" stroke-miterlimit="10" x1="1540.6" y1="439.6" x2="1540.6" y2="429.6"></line>
		<line fill="none" stroke="#8C9BA5" stroke-width="0.5" stroke-miterlimit="10" x1="1528.6" y1="439.6" x2="1528.6" y2="429.6"></line>
	</g>
	<g>
		<path fill="#FFFFFF" stroke="#8C9BA5" stroke-width="0.5" stroke-miterlimit="10" d="M1620.6,320.3l-3.4,3.4    c-1.5,1.5-2.3,3.6-1.4,5.6l6,12.9c1.1,2.3,3.9,3.4,6.2,2.3c2.3-1.1,3.4-3.9,2.3-6.2l-1.2-2.7c0,0,0.7-4.5,4.7-8.4    c3.9-3.9,8.4-4.7,8.4-4.7l2.7,1.2c2.3,1.1,5.1,0.1,6.2-2.3s0.1-5.1-2.3-6.2l-12.9-6c-2-0.9-4-0.2-5.6,1.4l-6.1,6.1    c-0.1,0-0.1,0-0.2,0c-0.9,0.4-3.3,1.4-4.6,0.8c-0.4-0.2-0.8-0.6-1-1c-0.5-1.8,0.8-3.3,2-4.9c1.3-1.6,2.9-3.5,1.4-5.5    c-0.4-0.6-1-0.9-1.8-1c-3.1-0.4-8,3.6-8.5,4"></path>
		<path fill="#FFFFFF" stroke="#8C9BA5" stroke-width="0.5" stroke-miterlimit="10" d="M1627.9,328.5c0.5,0.5,0.5,1.3,0,1.8    s-1.3,0.5-1.8,0l-0.9-0.9l-0.9,0.9c-0.5,0.5-1.3,0.5-1.8,0s-0.5-1.3,0-1.8l0.9-0.9l-0.9-0.9c-0.5-0.5-0.5-1.3,0-1.8s1.3-0.5,1.8,0    l0.9,0.9l0.9-0.9c0.5-0.5,1.3-0.5,1.8,0s0.5,1.3,0,1.8l-0.9,0.9L1627.9,328.5z"></path>
		<path fill="#FFFFFF" stroke="#8C9BA5" stroke-width="0.5" stroke-miterlimit="10" d="M1637.7,318.8c0.5,0.5,0.5,1.3,0,1.8    s-1.3,0.5-1.8,0l-0.9-0.9l-0.9,0.9c-0.5,0.5-1.3,0.5-1.8,0s-0.5-1.3,0-1.8l0.9-0.9l-0.9-0.9c-0.5-0.5-0.5-1.3,0-1.8s1.3-0.5,1.8,0    l0.9,0.9l0.9-0.9c0.5-0.5,1.3-0.5,1.8,0s0.5,1.3,0,1.8l-0.9,0.9L1637.7,318.8z"></path>
	</g>
	<circle fill="#FFFFFF" stroke="#8C9BA5" stroke-width="0.5" stroke-miterlimit="10" cx="1261.6" cy="584.6" r="10"></circle>
	<circle fill="#FFFFFF" stroke="#8C9BA5" stroke-width="0.5" stroke-miterlimit="10" cx="1261.6" cy="559.8" r="10"></circle>
	<circle fill="#FFFFFF" stroke="#8C9BA5" stroke-width="0.5" stroke-miterlimit="10" cx="1261.6" cy="534.8" r="10"></circle>
</g>

<g class="person" data-person="0">
	<path fill="#FFFFFF" stroke="#8C9BA5" stroke-linejoin="round" stroke-miterlimit="10" d="M509.5,385.4c0,0-5.1,2.1-8.1,6   c-2.9,3.6-2.9,7.2-2.5,8.9c0.6,2.3,4.1,1.3,4.1-1c0,0,0.4,1.3,1.2,1.2c0.8-0.1,0.9-0.2,0.6-1.7s1.2-5,3.3-6.4"></path>
	<path fill="#FFFFFF" stroke="#8C9BA5" stroke-linejoin="round" stroke-miterlimit="10" d="M517.5,403.1c0,0,2.5-0.5,0.7,2.3   c-1,1.6-0.2,3.1,2,3.3c2.2,0.2,5.1,0,5.1,0s1.6-3.1-3-3.3c0,0,2.1-2.6,1.5-4.8c-0.9-3-5-2.5-5-2.5"></path>
	<path fill="#FFFFFF" stroke="#8C9BA5" stroke-linejoin="round" stroke-miterlimit="10" d="M509.9,414.6c1.2-0.7,3.4-3.1,4.1-4   c2.7-3.4,6.1-12.6,4.4-25.1c-2.2-15.6-9.3-14.1-10.6-13.7c-2.3,0.7-3.9,2.1-3.7,5.7c0.3,4.4,4.4,5.5,1.7,13.1c-2,5.7,0,8.3,1.6,10   s3.3,4.6-0.2,8.8c-2.8,3.3-3.3,4.6-2,6.3c0.7,1,3,3,5.1,3.3c2.1,0.3,3.5-2.4,0.9-5.3"></path>
	<polyline fill="#FFFFFF" stroke="#8C9BA5" stroke-linejoin="round" stroke-miterlimit="10" points="524.4,376 523.1,375.4    527.1,366.1 532.9,368.2 529.9,376  "></polyline>
	<path fill="none" stroke="#8C9BA5" stroke-linejoin="round" stroke-miterlimit="10" d="M535.4,368c-0.1-1.4-1.4-2.4-2.7-2.2"></path>
	<path fill="none" stroke="#8C9BA5" stroke-linejoin="round" stroke-miterlimit="10" d="M537.5,367.8c-0.3-2.6-2.5-4.4-5.1-4.2"></path>
	<path fill="#FFFFFF" stroke="#8C9BA5" stroke-linejoin="round" stroke-miterlimit="10" d="M514.8,385.2c0,0,6.3-0.9,9.3-8.5   c0.7-1.7,2.2-1.5,2.3-0.2c0,0,0.9-2.9,2.6-1.9c1.6,1,1.2,3.2-0.1,5.4c-1.3,2.2-6.4,7.9-12,9.6"></path>
</g>

<g class="person" data-person="1">
	<path fill="#FFFFFF" stroke="#8C9BA5" stroke-linejoin="round" stroke-miterlimit="10" d="M689.7,644.7c0,0,3.1,3.5,4.8,7.3   c0,0,4.1-0.6,5.1,1.5s-9.3,3.2-9.3,3.2s-1.4-5-4.8-6.9"></path>
	<path fill="#FFFFFF" stroke="#8C9BA5" stroke-linejoin="round" stroke-miterlimit="10" d="M679.7,617.5c0,0-5.1,2.1-8.1,6   c-2.9,3.6-2.9,7.2-2.5,8.9c0.6,2.3,4.1,1.3,4.1-1c0,0,0.4,1.3,1.2,1.2c0.8-0.1,0.9-0.2,0.6-1.7s1.2-5,3.3-6.4"></path>
	<path fill="#FFFFFF" stroke="#8C9BA5" stroke-linejoin="round" stroke-miterlimit="10" d="M680,653.7c1.5-0.7,4.5-2.9,5.5-3.9   c3.5-3.7,10.3-11,9.3-28.7c-1-18.8-10.6-18.7-12.2-18.4c-2.8,0.6-4.9,2-5.1,6.4c-0.2,5.2,4.6,7,0.5,15.7c-3.1,6.5-0.9,9.8,0.7,12.1   c1.7,2.2,3.3,5.8-1.3,10.4c-3.7,3.6-4.4,5-3.2,7.2c0.8,1.3,3.2,4,5.7,4.5c2.4,0.5,4.4-2.4,1.7-6.1"></path>
	<polyline fill="#FFFFFF" stroke="#8C9BA5" stroke-linejoin="round" stroke-miterlimit="10" points="701.3,610.6 699.8,609.7    705.7,599.2 712.2,602.4 707.8,611.2  "></polyline>
	<path fill="#FFFFFF" stroke="#8C9BA5" stroke-linejoin="round" stroke-miterlimit="10" d="M715.2,602.4c0-1.6-1.3-3-3-3"></path>
	<path fill="#FFFFFF" stroke="#8C9BA5" stroke-linejoin="round" stroke-miterlimit="10" d="M717.7,602.4c0-3.1-2.5-5.5-5.5-5.5"></path>
	<path fill="#FFFFFF" stroke="#8C9BA5" stroke-linejoin="round" stroke-miterlimit="10" d="M688.7,620.3c0,0,7.6-0.4,12-9   c1.1-1.9,2.8-1.5,2.8,0.1c0,0,1.4-3.3,3.3-1.9c1.8,1.4,1.1,3.9-0.8,6.4c-1.8,2.5-8.5,8.7-15.4,10"></path>
</g>

<g class="person" data-person="2">
	<g>
		<g>
			<defs>
				<rect id="SVGID_13_" x="849.8" y="552.3" width="37.4" height="37.1"></rect>
			</defs>
			<clipPath id="SVGID_14_">
				<use xlink:href="#SVGID_13_" overflow="visible"></use>
			</clipPath>
			<polyline clip-path="url(#SVGID_14_)" fill="#FFFFFF" stroke="#8C9BA5" stroke-linejoin="round" stroke-miterlimit="10" points="     877.1,566.3 875.9,566 877.8,557.8 882.9,558.5 881.6,565.3    "></polyline>
		</g>
	</g>
	<g>
		<g>
			<defs>
				<rect id="SVGID_15_" x="849.8" y="552.3" width="37.4" height="37.1"></rect>
			</defs>
			<clipPath id="SVGID_16_">
				<use xlink:href="#SVGID_15_" overflow="visible"></use>
			</clipPath>
			<path clip-path="url(#SVGID_16_)" fill="#FFFFFF" stroke="#8C9BA5" stroke-linejoin="round" stroke-miterlimit="10" d="     M885,557.9c-0.3-1.1-1.5-1.7-2.6-1.4"></path>
		</g>
	</g>
	<g>
		<g>
			<defs>
				<rect id="SVGID_17_" x="849.8" y="552.3" width="37.4" height="37.1"></rect>
			</defs>
			<clipPath id="SVGID_18_">
				<use xlink:href="#SVGID_17_" overflow="visible"></use>
			</clipPath>
			<path clip-path="url(#SVGID_18_)" fill="#FFFFFF" stroke="#8C9BA5" stroke-linejoin="round" stroke-miterlimit="10" d="     M886.7,557.4c-0.6-2-2.8-3.2-4.9-2.6"></path>
		</g>
	</g>
	<g>
		<g>
			<defs>
				<rect id="SVGID_19_" x="849.8" y="552.3" width="37.4" height="37.1"></rect>
			</defs>
			<clipPath id="SVGID_20_">
				<use xlink:href="#SVGID_19_" overflow="visible"></use>
			</clipPath>
			<path clip-path="url(#SVGID_20_)" fill="#FFFFFF" stroke="#8C9BA5" stroke-linejoin="round" stroke-miterlimit="10" d="     M867.5,552.8c-6-0.1-9.7,8.7-10.8,14.1c-1.1,5.4-2,17.5,0.6,26c0,0-5.6-1.2-5.6,2.1c0,1.2,1.6,1.7,5.6,1.7c2.8,0,4.7,0,4.7,0     s-1.3-4.8-0.4-9.9c1-5.8,6.7-4.3,7.3,0.1c0.5,4.4-0.8,9.9-0.8,9.9s6.3,0,7.8,0c2.4,0,2.7-2.7,0.9-3.6c-1.8-0.9-4-0.7-4-0.7     s1.9-2.6,0.6-8.2c-1.9-8.4-2-14.6-0.6-19.9C874.2,557.9,873.6,552.8,867.5,552.8z"></path>
		</g>
	</g>
	<g>
		<g>
			<defs>
				<rect id="SVGID_21_" x="849.8" y="552.3" width="37.4" height="37.1"></rect>
			</defs>
			<clipPath id="SVGID_22_">
				<use xlink:href="#SVGID_21_" overflow="visible"></use>
			</clipPath>
			<path clip-path="url(#SVGID_22_)" fill="#FFFFFF" stroke="#8C9BA5" stroke-linejoin="round" stroke-miterlimit="10" d="     M870.4,567.8c0,0,3.1,2.1,7.2-2.6c1.2-1,2.3-0.2,1.8,0.8c0,0,1.9-1.8,2.7-0.4c0.8,1.4-0.6,3.3-2.5,4.6c-2.3,1.5-5.2,2.3-10.1,1.4     "></path>
		</g>
	</g>
	<g>
		<g>
			<defs>
				<rect id="SVGID_23_" x="849.8" y="552.3" width="37.4" height="37.1"></rect>
			</defs>
			<clipPath id="SVGID_24_">
				<use xlink:href="#SVGID_23_" overflow="visible"></use>
			</clipPath>
			<path clip-path="url(#SVGID_24_)" fill="#FFFFFF" stroke="#8C9BA5" stroke-linejoin="round" stroke-miterlimit="10" d="     M857.9,566.6c0,0-3.5,1.5-5.7,4.3c-2,2.6-2,5.2-1.7,6.4c0.4,1.6,2.9,0.9,2.8-0.7c0,0,0.2,1,0.8,0.9s0.6-0.2,0.4-1.3     s0.5-4.7,4.5-6.4"></path>
		</g>
	</g>
</g>

<g class="person" data-person="3">
	<g>
		<g>
			<defs>
				<rect id="SVGID_1_" x="1345.5" y="328.6" width="39.4" height="40.7"></rect>
			</defs>
			<clipPath id="SVGID_2_">
				<use xlink:href="#SVGID_1_" overflow="visible"></use>
			</clipPath>
			<polyline clip-path="url(#SVGID_2_)" fill="#FFFFFF" stroke="#8C9BA5" stroke-linejoin="round" stroke-miterlimit="10" points="     1359,346.2 1360.2,345.5 1355.6,337.5 1350.4,339.9 1353.9,346.7    "></polyline>
		</g>
	</g>
	<g>
		<g>
			<defs>
				<rect id="SVGID_3_" x="1345.5" y="328.6" width="39.4" height="40.7"></rect>
			</defs>
			<clipPath id="SVGID_4_">
				<use xlink:href="#SVGID_3_" overflow="visible"></use>
			</clipPath>
			<path clip-path="url(#SVGID_4_)" fill="#FFFFFF" stroke="#8C9BA5" stroke-linejoin="round" stroke-miterlimit="10" d="     M1348.1,339.9c0-1.3,1-2.3,2.3-2.3"></path>
		</g>
	</g>
	<g>
		<g>
			<defs>
				<rect id="SVGID_5_" x="1345.5" y="328.6" width="39.4" height="40.7"></rect>
			</defs>
			<clipPath id="SVGID_6_">
				<use xlink:href="#SVGID_5_" overflow="visible"></use>
			</clipPath>
			<path clip-path="url(#SVGID_6_)" fill="#FFFFFF" stroke="#8C9BA5" stroke-linejoin="round" stroke-miterlimit="10" d="     M1346,339.9c0-2.3,1.9-4.2,4.4-4.2"></path>
		</g>
	</g>
	<g>
		<g>
			<defs>
				<rect id="SVGID_7_" x="1345.5" y="328.6" width="39.4" height="40.7"></rect>
			</defs>
			<clipPath id="SVGID_8_">
				<use xlink:href="#SVGID_7_" overflow="visible"></use>
			</clipPath>
			<path clip-path="url(#SVGID_8_)" fill="#FFFFFF" stroke="#8C9BA5" stroke-linejoin="round" stroke-miterlimit="10" d="     M1371.3,350.2c0,0-1.6,3.9-4.6,6.3c-2.8,2.2-5.6,2.4-7,2c-1.8-0.4-1.1-3.1,0.7-3.1c0,0-1.1-0.3-1-0.9s0.2-0.7,1.4-0.5     s6.4-2.8,7.5-4.5"></path>
		</g>
	</g>
	<g>
		<g>
			<defs>
				<rect id="SVGID_9_" x="1345.5" y="328.6" width="39.4" height="40.7"></rect>
			</defs>
			<clipPath id="SVGID_10_">
				<use xlink:href="#SVGID_9_" overflow="visible"></use>
			</clipPath>
			<path clip-path="url(#SVGID_10_)" fill="#FFFFFF" stroke="#8C9BA5" stroke-linejoin="round" stroke-miterlimit="10" d="     M1371.3,329.2c6.6-0.1,10.7,9.6,11.9,15.5c1.2,5.9,2.2,19.2-0.7,28.5c0,0,6.2-1.3,6.2,2.3c0,1.3-1.8,1.8-6.2,1.8     c-3.1,0-5.1,0-5.1,0s1.4-5.2,0.5-10.9c-1.1-6.3-7.4-4.7-8,0.1c-0.6,4.8,0.9,10.8,0.9,10.8s-6.9,0-8.6,0c-2.7,0-3-3-1-4     s4.4-0.8,4.4-0.8s-2.1-2.8-0.7-9c2.1-9.3,2.2-16.1,0.7-21.9C1363.9,334.8,1364.6,329.2,1371.3,329.2z"></path>
		</g>
	</g>
	<g>
		<g>
			<defs>
				<rect id="SVGID_11_" x="1345.5" y="328.6" width="39.4" height="40.7"></rect>
			</defs>
			<clipPath id="SVGID_12_">
				<use xlink:href="#SVGID_11_" overflow="visible"></use>
			</clipPath>
			<path clip-path="url(#SVGID_12_)" fill="#FFFFFF" stroke="#8C9BA5" stroke-linejoin="round" stroke-miterlimit="10" d="     M1369.8,344.7c0,0-4.8,3.5-11.8,0.5c-1.6-0.6-2.5,0.5-1.6,1.4c0,0-2.5-1.3-2.9,0.4c-0.4,1.7,1.3,2.9,3.6,3.4     c2.4,0.6,9.5,1,14.4-1.5"></path>
		</g>
	</g>
</g>

<g class="person" data-person="4">
	<g>
		<g>
			<defs>
				<rect id="SVGID_25_" x="1357.3" y="543.8" width="35.4" height="25.6"></rect>
			</defs>
			<clipPath id="SVGID_26_">
				<use xlink:href="#SVGID_25_" overflow="visible"></use>
			</clipPath>
			<polyline clip-path="url(#SVGID_26_)" fill="#FFFFFF" stroke="#8C9BA5" stroke-linejoin="round" stroke-miterlimit="10" points="     1378.1,552.6 1377.2,551.7 1383.4,545 1387.7,548.6 1382.8,554.3    "></polyline>
		</g>
	</g>
	<g>
		<g>
			<defs>
				<rect id="SVGID_27_" x="1357.3" y="543.8" width="35.4" height="25.6"></rect>
			</defs>
			<clipPath id="SVGID_28_">
				<use xlink:href="#SVGID_27_" overflow="visible"></use>
			</clipPath>
			<path clip-path="url(#SVGID_28_)" fill="#FFFFFF" stroke="#8C9BA5" stroke-linejoin="round" stroke-miterlimit="10" d="     M1389.9,549.1c0.3-1.2-0.4-2.4-1.7-2.7"></path>
		</g>
	</g>
	<g>
		<g>
			<defs>
				<rect id="SVGID_29_" x="1357.3" y="543.8" width="35.4" height="25.6"></rect>
			</defs>
			<clipPath id="SVGID_30_">
				<use xlink:href="#SVGID_29_" overflow="visible"></use>
			</clipPath>
			<path clip-path="url(#SVGID_30_)" fill="#FFFFFF" stroke="#8C9BA5" stroke-linejoin="round" stroke-miterlimit="10" d="     M1391.8,549.5c0.5-2.3-0.8-4.5-3.1-5.1"></path>
		</g>
	</g>
	<g>
		<g>
			<defs>
				<rect id="SVGID_31_" x="1357.3" y="543.8" width="35.4" height="25.6"></rect>
			</defs>
			<clipPath id="SVGID_32_">
				<use xlink:href="#SVGID_31_" overflow="visible"></use>
			</clipPath>
			<path clip-path="url(#SVGID_32_)" fill="#FFFFFF" stroke="#8C9BA5" stroke-linejoin="round" stroke-miterlimit="10" d="     M1367.1,557.6c0,0,5.7,1.1,10.5-4.5c1.1-1.2,2.4-0.6,2,0.6c0,0,1.6-2.2,2.7-0.8s0.1,3.1-1.7,4.6s-7.8,4.9-13.2,4.6"></path>
		</g>
	</g>
	<g>
		<g>
			<defs>
				<rect id="SVGID_33_" x="1357.3" y="543.8" width="35.4" height="25.6"></rect>
			</defs>
			<clipPath id="SVGID_34_">
				<use xlink:href="#SVGID_33_" overflow="visible"></use>
			</clipPath>
			<path clip-path="url(#SVGID_34_)" fill="#FFFFFF" stroke="#8C9BA5" stroke-linejoin="round" stroke-miterlimit="10" d="     M1376.1,586.6c0,0,4.6-0.9,5.7,0.2c1.1,1.1,0,2.9,0,2.9s-4.7,0-7,0c-1.7,0-3.2-0.8-2.9-2.2c0.5-2.2,1.3-4.2,2.2-5.8     s1.3-3.9-2-3.2c-3.8,0.8-8.5,2.5-11.3-0.2c-3-2.9-2.9-8.1-2.9-8.1c-0.1-2.4-0.2-8.4,2.4-14.9c2.7-6.8,7-8.6,9.8-8.6     c1.9,0,7.2,1.8,2.6,11.2c-4.2,8.4-2.6,14.7-2.6,14.7s3.5-0.3,5.6-0.3c2.1-0.1,4.9,0.8,4.7,5.2c-0.2,4.4-3.1,9.1-3.1,9.1"></path>
		</g>
	</g>
	<g>
		<g>
			<defs>
				<rect id="SVGID_35_" x="1357.3" y="543.8" width="35.4" height="25.6"></rect>
			</defs>
			<clipPath id="SVGID_36_">
				<use xlink:href="#SVGID_35_" overflow="visible"></use>
			</clipPath>
			<path clip-path="url(#SVGID_36_)" fill="#FFFFFF" stroke="#8C9BA5" stroke-linejoin="round" stroke-miterlimit="10" d="     M1368.7,559c0,0,6.1,1,11.4,3.8c4.5,2.3,4,4.3,3.4,4.9c-0.5,0.6-1.4,1-2.7-0.6c0,0,0.4,0.9-0.1,1.4s-1.1,0.4-2-1.4     c-1.3-2.5-9.2-3.9-11.1-3.8"></path>
		</g>
	</g>
</g>

<g class="person" data-person="5">
	<path fill="#FFFFFF" stroke="#8C9BA5" stroke-linejoin="round" stroke-miterlimit="10" d="M1492.3,644.7c0,0-3.1,3.5-4.8,7.3   c0,0-4.1-0.6-5.1,1.5s9.3,3.2,9.3,3.2s1.4-5,4.8-6.9"></path>
	<path fill="#FFFFFF" stroke="#8C9BA5" stroke-linejoin="round" stroke-miterlimit="10" d="M1502.3,617.5c0,0,5.1,2.1,8.1,6   c2.9,3.6,2.9,7.2,2.5,8.9c-0.6,2.3-4.1,1.3-4.1-1c0,0-0.4,1.3-1.2,1.2c-0.8-0.1-0.9-0.2-0.6-1.7s-1.2-5-3.3-6.4"></path>
	<path fill="#FFFFFF" stroke="#8C9BA5" stroke-linejoin="round" stroke-miterlimit="10" d="M1501.9,653.7c-1.5-0.7-4.5-2.9-5.5-3.9   c-3.5-3.7-10.3-11-9.3-28.7c1-18.8,10.6-18.7,12.2-18.4c2.8,0.6,4.9,2,5.1,6.4c0.2,5.2-4.6,7-0.5,15.7c3.1,6.5,0.9,9.8-0.7,12.1   c-1.7,2.2-3.3,5.8,1.3,10.4c3.7,3.6,4.4,5,3.2,7.2c-0.8,1.3-3.2,4-5.7,4.5s-4.4-2.4-1.7-6.1"></path>
	<polyline fill="#FFFFFF" stroke="#8C9BA5" stroke-linejoin="round" stroke-miterlimit="10" points="1480.7,610.6 1482.2,609.7    1476.3,599.2 1469.8,602.4 1474.2,611.2  "></polyline>
	<path fill="#FFFFFF" stroke="#8C9BA5" stroke-linejoin="round" stroke-miterlimit="10" d="M1466.8,602.4c0-1.6,1.3-3,3-3"></path>
	<path fill="#FFFFFF" stroke="#8C9BA5" stroke-linejoin="round" stroke-miterlimit="10" d="M1464.2,602.4c0-3.1,2.5-5.5,5.5-5.5"></path>
	<path fill="#FFFFFF" stroke="#8C9BA5" stroke-linejoin="round" stroke-miterlimit="10" d="M1493.3,620.3c0,0-7.6-0.4-12-9   c-1.1-1.9-2.8-1.5-2.8,0.1c0,0-1.4-3.3-3.3-1.9c-1.8,1.4-1.1,3.9,0.8,6.4c1.8,2.5,8.5,8.7,15.4,10"></path>
</g>

<g class="bubble bubble0" data-bubble="0">
	<g id="XMLID_2_">
		<path fill="#FFFFFF" stroke="#8C9BA5" stroke-linejoin="round" stroke-miterlimit="10" d="M510.6,359.7l3.6,6.2l3.5-6.1    c12.4-1.1,22-9.3,22-19.3c0-10.7-11.2-19.4-25-19.4c-13.8,0-25,8.7-25,19.4C489.8,350.2,498.8,358.2,510.6,359.7z"></path>
	</g>
	<path fill="#FFFFFF" stroke="#8C9BA5" stroke-linejoin="round" stroke-miterlimit="10" d="M524.5,346.9v3.6c0,1.1-0.9,2-2,2H507   c-1.1,0-2-0.9-2-2v-11.3c0-1.1,0.9-2,2-2h15.5c1.1,0,2,0.9,2,2v1.7"></path>
	<path fill="none" stroke="#8C9BA5" stroke-linejoin="round" stroke-miterlimit="10" d="M509.5,337.1v-3.4c0-2.9,2.3-5.2,5.2-5.2   c2.9,0,5.2,2.3,5.2,5.2v3.4"></path>
	<polyline fill="none" stroke="#8C9BA5" stroke-linejoin="round" stroke-miterlimit="10" points="514,345.1 518.8,350 529.5,339.3     "></polyline>
</g>


<g class="bubble bubble1" data-bubble="1">
	<g id="XMLID_1_">
		<path fill="#FFFFFF" stroke="#8C9BA5" stroke-linejoin="round" stroke-miterlimit="10" d="M680.1,590.6l3.6,6.2l3.5-6.1    c12.4-1.1,22-9.3,22-19.3c0-10.7-11.2-19.4-25-19.4c-13.8,0-25,8.7-25,19.4C659.3,581.1,668.3,589.1,680.1,590.6z"></path>
	</g>
	<circle fill="#FFFFFF" stroke="#8C9BA5" stroke-linejoin="round" stroke-miterlimit="10" cx="684.3" cy="572" r="2.5"></circle>
	<circle fill="#FFFFFF" stroke="#8C9BA5" stroke-linejoin="round" stroke-miterlimit="10" cx="674.3" cy="572" r="2.5"></circle>
	<circle fill="#FFFFFF" stroke="#8C9BA5" stroke-linejoin="round" stroke-miterlimit="10" cx="694.3" cy="572" r="2.5"></circle>
</g>

<g class="bubble bubble2 bubble-ani" data-bubble="2">
	<g id="XMLID_3_">
		<path fill="#FFFFFF" stroke="#8C9BA5" stroke-linejoin="round" stroke-miterlimit="10" d="M864.6,542.8l3.6,6.2l3.5-6.1    c12.4-1.1,22-9.3,22-19.3c0-10.7-11.2-19.4-25-19.4c-13.8,0-25,8.7-25,19.4C843.8,533.3,852.8,541.2,864.6,542.8z"></path>
	</g>
	<g>
		<g id="XMLID_4_">
			<path fill="#FFFFFF" stroke="#8C9BA5" stroke-linejoin="round" stroke-miterlimit="10" d="M863.1,516.8v6.8     c0,3.1,2.5,5.7,5.7,5.7c3.1,0,5.7-2.5,5.7-5.7v-6.8c0-3.1-2.5-5.7-5.7-5.7C865.6,511.1,863.1,513.7,863.1,516.8z"></path>
		</g>
		<path fill="none" stroke="#8C9BA5" stroke-linejoin="round" stroke-miterlimit="10" d="M877.1,523.6c0,4.6-3.7,8.3-8.3,8.3    s-8.3-3.7-8.3-8.3"></path>
		
			<line fill="none" stroke="#8C9BA5" stroke-linejoin="round" stroke-miterlimit="10" x1="868.8" y1="531.9" x2="868.8" y2="534.8"></line>
		
			<line fill="none" stroke="#8C9BA5" stroke-linejoin="round" stroke-miterlimit="10" x1="864.4" y1="534.8" x2="873.1" y2="534.8"></line>
	</g>
</g>

<g class="bubble bubble3" data-bubble="3">
	<g id="XMLID_5_">
		<path fill="#FFFFFF" stroke="#8C9BA5" stroke-linejoin="round" stroke-miterlimit="10" d="M1367.4,318.3l3.6,6.2l3.5-6.1    c12.4-1.1,22-9.3,22-19.3c0-10.7-11.2-19.4-25-19.4s-25,8.7-25,19.4C1346.5,308.8,1355.6,316.7,1367.4,318.3z"></path>
	</g>
	<g>
		<g>
			<g id="XMLID_8_">
				<path fill="none" stroke="#8C9BA5" stroke-linejoin="round" stroke-miterlimit="10" d="M1363.1,300.9c0,0.6-0.5,1.1-1.1,1.1      s-1.1-0.5-1.1-1.1l-0.6-8v-0.2c0-1,0.8-1.7,1.7-1.7c1,0,1.7,0.8,1.7,1.7v0.2L1363.1,300.9z"></path>
			</g>
			<circle fill="none" stroke="#8C9BA5" stroke-linejoin="round" stroke-miterlimit="10" cx="1361.9" cy="305.6" r="1.7"></circle>
		</g>
		<g>
			
				<line fill="none" stroke="#8C9BA5" stroke-linejoin="round" stroke-miterlimit="10" x1="1367.4" y1="292.6" x2="1383.4" y2="292.6"></line>
			
				<line fill="none" stroke="#8C9BA5" stroke-linejoin="round" stroke-miterlimit="10" x1="1367.4" y1="298.9" x2="1383.4" y2="298.9"></line>
			
				<line fill="none" stroke="#8C9BA5" stroke-linejoin="round" stroke-miterlimit="10" x1="1367.4" y1="305.1" x2="1383.4" y2="305.1"></line>
		</g>
	</g>
</g>
<g class="bubble bubble4" data-bubble="4">
	<g id="XMLID_9_">
		<path fill="#FFFFFF" stroke="#8C9BA5" stroke-linejoin="round" stroke-miterlimit="10" d="M1369.1,537.6l3.6,6.2l3.5-6.1    c12.4-1.1,22-9.3,22-19.3c0-10.7-11.2-19.4-25-19.4s-25,8.7-25,19.4C1348.2,528.1,1357.3,536.1,1369.1,537.6z"></path>
	</g>
	<g>
		<path fill="#FFFFFF" stroke="#8C9BA5" stroke-linejoin="round" stroke-miterlimit="10" d="M1378.8,526.8h-15.5c-1.1,0-2-0.9-2-2    v-11.3c0-1.1,0.9-2,2-2h15.5c1.1,0,2,0.9,2,2v11.3C1380.8,525.9,1379.9,526.8,1378.8,526.8z"></path>
		
			<line fill="none" stroke="#8C9BA5" stroke-linejoin="round" stroke-miterlimit="10" x1="1359.3" y1="513.5" x2="1359.3" y2="519.2"></line>
		<polygon fill="none" stroke="#8C9BA5" stroke-linejoin="round" stroke-miterlimit="10" points="1387.2,523.4 1382.8,521.4     1382.8,515.5 1387.2,513.5   "></polygon>
	</g>
</g>

<g class="bubble bubble5" data-bubble="5">
	<g id="XMLID_6_">
		<path fill="#FFFFFF" stroke="#8C9BA5" stroke-linejoin="round" stroke-miterlimit="10" d="M1493.5,592.5l3.6,6.2l3.5-6.1    c12.4-1.1,22-9.3,22-19.3c0-10.7-11.2-19.4-25-19.4s-25,8.7-25,19.4C1472.7,583,1481.7,590.9,1493.5,592.5z"></path>
	</g>
	<polyline fill="#FFFFFF" stroke="#8C9BA5" stroke-linejoin="round" stroke-miterlimit="10" points="1483,574.9 1489.9,574.9    1494.8,561.7 1500.5,583.3 1504.9,568.3 1507.4,574.9 1512.4,574.9  "></polyline>
</g>


</svg>