<?xml version="1.0" encoding="utf-8"?>
<svg version="1.1" id="图层_1" xmlns="http://www.w3.org/2000/svg" xmlns:xlink="http://www.w3.org/1999/xlink" x="0px" y="0px"
	 width="490px" height="300px" viewBox="0 0 490 300" style="enable-background:new 0 0 490 300;" xml:space="preserve">
<style type="text/css">
	.st0{fill:none;stroke:#EBEBEB;stroke-width:0.5;stroke-miterlimit:10;}
	.st1{fill:none;stroke:#EBEBEB;stroke-width:2;stroke-miterlimit:10;}
	.st2{fill:none;stroke:#EBEBEB;stroke-miterlimit:10;}
	.st3{fill:none;stroke:#EBEBEB;stroke-width:2;stroke-linecap:round;stroke-miterlimit:10;}
	.st4{fill:#EBEBEB;}
</style>
<line class="st0" x1="215.9" y1="25.7" x2="213.3" y2="28.3"/>
<g>
	<circle class="st1" cx="150.5" cy="180.9" r="93.1"/>
	<path class="st2" d="M68.5,136.8h61c6.7,0,12.2,5.5,12.2,12.2s-5.5,12.2-12.2,12.2H59.8"/>
	<path class="st2" d="M72.2,216.3h118.6c6.7,0,12.2-5.5,12.2-12.2c0-6.7-5.5-12.2-12.2-12.2h-7.4c-6.7,0-12.2-5.5-12.2-12.2
		c0-6.7,5.5-12.2,12.2-12.2h61"/>
	<path class="st2" d="M242.5,195.4c40.9,53.9,59.2,101.9,41.9,119.2c-23.3,23.3-102.1-17.7-176-91.6S-6.6,70.3,16.7,47
		C34,29.7,82.1,48,135.9,88.9"/>
	<circle class="st2" cx="63.9" cy="242" r="48.1"/>
	<circle class="st0" cx="348.6" cy="250.8" r="14.4"/>
	
		<ellipse transform="matrix(0.8616 -0.5076 0.5076 0.8616 6.8703 205.9747)" class="st1" cx="381.1" cy="90.4" rx="24.8" ry="24.8"/>
	<circle class="st2" cx="77.4" cy="52.5" r="14.7"/>
	<path class="st2" d="M357.6,82.7c0,0,6,2.1,21-2.1c5.8-1.7,11.6,3.3,12.9,10.5c0.9,5.3-0.7,12.2-9.1,14.7s-14.6,1.6-20.2,0.4"/>
	<path class="st3" d="M387.7,91.4c0.7,4.2-0.6,9.7-7.2,11.6"/>
	<path class="st3" d="M384.8,85.3c0.6,0.7,1.2,1.5,1.7,2.3"/>
	<path class="st2" d="M371,113c0,0-2.2,3.1-0.8,6.1c1.8,4,10.9,5.4,23.1,0.6c11.2-4.5,16.8-13.5,15.7-17.6c-1-3.9-4.1-4.6-4.1-4.6"
		/>
	<path class="st1" d="M372.1,121.2c0,0-3,13.1,5.3,29.1s24.2,24,39.9,26.9c15.7,3,27.7,1.4,27.7,1.4s-0.4,1.6-0.6,3.3
		c-0.3,2.8,1.7,8.3,6.1,8c3.1-0.3,8.3-2.5,8.9-16.7c0.1-3.4-0.9-6.6-0.9-6.6s-19.2-1.9-31.8-17.9c0,0,1.7-6-3.6-10.9"/>
	<g>
		<path class="st4" d="M409,102.1c1.1-0.2,2.3-0.2,3.4-0.2c1.2,0.1,2.3,0.3,3.4,0.6c1.1,0.3,2.2,0.8,3.2,1.3c1,0.6,2,1.2,2.9,1.9
			l0.7,0.6c0.2,0.2,0.4,0.4,0.6,0.6c0.4,0.4,0.8,0.8,1.2,1.3c0.7,0.9,1.5,1.8,2.1,2.8c0.3,0.5,0.6,1,0.9,1.5l0.8,1.6l0.4,0.8
			l0.1,0.2l0.1,0.1l0,0.1l0.2,0.4c0.2,0.5,0.4,1.1,0.6,1.6c0.2,0.6,0.4,1.1,0.5,1.7c0.2,0.6,0.2,1.2,0.3,1.8
			c0.2,1.2,0.2,2.4,0.2,3.6c-0.1,1.2-0.3,2.4-0.6,3.6c-0.3,1.2-0.8,2.3-1.3,3.4c-1.1,2.2-2.5,4.1-4.2,5.8c-0.8,0.8-1.7,1.6-2.6,2.4
			c-0.9,0.7-1.9,1.4-3,2l0.2-0.2c-0.6,0.6-1.1,1.1-1.8,1.6c-0.6,0.5-1.2,1-1.9,1.4c-0.7,0.4-1.4,0.9-2.2,1.2
			c-0.4,0.2-0.8,0.3-1.2,0.4c-0.2,0-0.4,0.1-0.7,0.1l-0.7,0c-0.2,0-0.5-0.1-0.8-0.1l-0.1,0c0,0,0,0-0.1,0l0,0l-0.1,0l-0.3-0.1
			c-0.2-0.1-0.5-0.2-0.7-0.3c-0.2-0.1-0.4-0.2-0.6-0.4c-0.7-0.5-1.3-1.2-1.8-1.9c-0.5-0.7-0.8-1.5-1.1-2.3c-0.3-0.8-0.5-1.6-0.6-2.4
			l-0.1-0.8l0.8-0.2c1-0.3,2-0.7,3-1.2c0.5-0.3,0.9-0.6,1.3-0.9c0.2-0.2,0.4-0.3,0.6-0.5l0.3-0.3l0.3-0.3l0.5,1.5
			c-0.2,0-0.6-0.1-0.9-0.1c-0.3,0-0.6,0-1,0.1c-0.3,0.1-0.6,0.1-0.9,0.3c-0.2,0.1-0.3,0.1-0.4,0.2l-0.2,0.1l-0.3,0.1
			c-0.1,0.1-0.6,0.2-0.8,0.2c-0.3,0-0.6-0.1-0.9-0.2c-0.6-0.3-0.9-0.7-1.1-1.2c-0.2-0.5-0.3-1-0.2-1.6c0-0.1,0.1-0.2,0.1-0.2l0-0.1
			l0,0l0,0l0-0.1l0-0.1c0.1-0.1,0.1-0.1,0.2-0.2c0.2-0.2,0.4-0.4,0.5-0.5c0.7-0.6,1.4-0.9,2.1-1.3c0.7-0.3,1.5-0.5,2.3-0.7
			c0.4-0.1,0.8-0.1,1.2-0.1c0.4,0,0.8,0,1.2,0c0.4,0,0.8,0.1,1.2,0.2c0.4,0.1,0.8,0.2,1.1,0.3l-0.5,0c0.3-0.2,0.7-0.4,1-0.7
			c0.3-0.3,0.6-0.5,0.9-0.8c0.3-0.3,0.5-0.6,0.8-1c0.2-0.3,0.5-0.7,0.6-1.1c0.2-0.4,0.3-0.8,0.4-1.2c0.1-0.4,0.2-0.8,0.2-1.2
			c0-0.4,0.1-0.8,0-1.3c0-0.4-0.1-0.8-0.2-1.3c0-0.2-0.1-0.4-0.1-0.6c-0.1-0.2-0.1-0.4-0.2-0.6c-0.1-0.4-0.3-0.8-0.5-1.1
			c-0.2-0.4-0.5-0.7-0.7-1.1c-0.3-0.3-0.6-0.7-0.9-0.9c-0.3-0.3-0.7-0.6-1-0.8c-0.4-0.2-0.7-0.5-1.1-0.6c-0.4-0.2-0.8-0.3-1.2-0.4
			c-0.4-0.1-0.9-0.1-1.3,0.1c0.4-0.2,0.9-0.2,1.3-0.2c0.4,0.1,0.9,0.1,1.3,0.3c0.4,0.1,0.8,0.3,1.2,0.6c0.4,0.2,0.8,0.5,1.1,0.8
			c0.4,0.3,0.7,0.6,1,0.9c0.3,0.3,0.6,0.7,0.8,1.1c0.2,0.4,0.5,0.8,0.7,1.2c0.1,0.2,0.2,0.4,0.2,0.6c0.1,0.2,0.1,0.5,0.2,0.7
			c0.1,0.4,0.2,0.9,0.3,1.4c0.1,0.5,0.1,0.9,0.1,1.4c0,0.5-0.1,0.9-0.2,1.4c-0.1,0.5-0.2,0.9-0.4,1.3c-0.2,0.4-0.4,0.9-0.6,1.3
			c-0.2,0.4-0.5,0.8-0.8,1.1c-0.3,0.4-0.6,0.7-1,1c-0.4,0.3-0.7,0.6-1.2,0.9l-0.2,0.1l-0.3-0.1c-0.3-0.1-0.6-0.2-1-0.2
			c-0.3-0.1-0.7-0.1-1-0.1c-0.3,0-0.7,0-1,0c-0.3,0-0.7,0.1-1,0.1c-0.7,0.1-1.3,0.4-1.9,0.6c-0.6,0.3-1.2,0.6-1.6,1.1
			c-0.1,0.1-0.2,0.2-0.2,0.2c0,0-0.1,0.1-0.1,0.2l0,0.1l0,0c0,0,0.1-0.1,0-0.1l0,0l0,0l0,0c0,0,0,0,0,0c0,0.1,0,0.3,0.1,0.5
			c0.1,0.2,0.3,0.3,0.4,0.4c0.1,0,0.1,0,0.2,0c0,0,0.1,0,0.1,0c0,0,0.1,0,0.2-0.1l0.1,0l0,0l0,0l0,0c-0.1,0.1,0,0-0.1,0l0,0l0.1-0.1
			l0.3-0.1c0.2-0.1,0.4-0.2,0.6-0.3c0.4-0.2,0.8-0.3,1.2-0.4c0.4-0.1,0.8-0.1,1.2-0.2c0.4,0,0.8,0,1.3,0.1l1.6,0.2l-1.1,1.2
			c-0.1,0.1-0.2,0.2-0.3,0.4l-0.3,0.3c-0.2,0.2-0.5,0.4-0.7,0.6c-0.5,0.4-1,0.7-1.5,1c-1,0.6-2.2,1.1-3.4,1.5l0.7-1
			c0.2,1.3,0.7,2.7,1.4,3.8c0.4,0.6,0.8,1,1.3,1.4l0.4,0.2c0.1,0.1,0.2,0.1,0.4,0.2l0.3,0.1l0.1,0l0,0c-0.1,0,0,0,0,0l0,0
			c0.1,0,0.2,0,0.4,0l0.4,0c0.1,0,0.3-0.1,0.4-0.1c0.3-0.1,0.6-0.2,0.9-0.3c0.6-0.3,1.2-0.6,1.8-1c0.6-0.4,1.2-0.8,1.7-1.3
			c0.6-0.5,1.1-1,1.6-1.5l0.1-0.1l0.1-0.1c0.9-0.5,1.8-1.2,2.7-1.8c0.9-0.7,1.7-1.4,2.5-2.2c1.5-1.6,2.9-3.3,3.9-5.3
			c0.5-1,0.9-2,1.2-3c0.3-1,0.5-2.1,0.6-3.2c0.1-1.1,0.1-2.2,0-3.3c-0.1-0.5-0.1-1.1-0.3-1.6c-0.1-0.5-0.2-1.1-0.4-1.6
			c-0.1-0.5-0.3-1.1-0.5-1.6l-0.1-0.4l0-0.1c0,0,0-0.1,0-0.1l-0.1-0.2l-0.3-0.8l-0.7-1.5c-0.3-0.5-0.5-1-0.8-1.5
			c-0.5-1-1.2-1.9-1.9-2.8c-0.3-0.4-0.7-0.8-1.1-1.3c-0.2-0.2-0.4-0.4-0.6-0.6l-0.6-0.6c-0.8-0.8-1.7-1.4-2.7-2c-1-0.6-2-1.1-3-1.5
			c-1.1-0.4-2.2-0.7-3.3-0.8C411.3,102.1,410.2,102,409,102.1z"/>
	</g>
	<g>
		<path class="st4" d="M393.5,166.9l0.2,3l0.4,2.8c0.2,0.9,0.4,1.9,0.7,2.8c0.3,0.9,0.5,1.9,0.9,2.7c0.3,0.9,0.7,1.8,1.1,2.6
			c0.2,0.4,0.4,0.9,0.6,1.3l0.7,1.2c0.2,0.4,0.5,0.8,0.8,1.2l0.8,1.2c0.6,0.7,1.2,1.5,2,2.1c0.4,0.3,0.7,0.7,1.1,0.9l1.1,0.8
			c0.4,0.3,0.8,0.5,1.2,0.7l0.6,0.4l0.7,0.3c0.4,0.2,0.9,0.4,1.3,0.5l1.4,0.4c0.9,0.1,1.9,0.3,2.8,0.3c0.9,0,1.9-0.1,2.9-0.2
			c1-0.1,1.9-0.3,2.9-0.5c1-0.2,1.9-0.4,2.8-0.8c0.9-0.3,1.8-0.7,2.6-1.1l0.6-0.4l0,0.7c0,0.7,0.1,1.3,0.1,2
			c0.1,0.7,0.2,1.3,0.4,1.9c0.5,1.1,1.4,2.2,2.5,2.9c0.5,0.3,1.1,0.6,1.8,0.6c0.6,0,1.2-0.1,1.8-0.5c1.1-0.6,2-1.7,2.4-2.9
			c0.2-0.6,0.4-1.3,0.4-1.9c0.1-0.7,0.1-1.3,0.1-2c0-0.7-0.1-1.3-0.2-2c-0.1-0.7-0.2-1.3-0.4-2c-0.1-0.7-0.3-1.3-0.5-1.9
			c-0.2-0.6-0.4-1.3-0.6-1.9c-0.5-1.2-1.2-2.4-2-3.5c0.8,1.1,1.5,2.2,2.1,3.5c0.3,0.6,0.5,1.3,0.7,1.9c0.2,0.6,0.4,1.3,0.6,1.9
			c0.2,0.6,0.3,1.3,0.4,2c0.1,0.7,0.2,1.3,0.2,2c0.1,0.7,0,1.4,0,2c-0.1,0.7-0.2,1.4-0.4,2c-0.4,1.3-1.3,2.5-2.6,3.2
			c-0.6,0.3-1.3,0.6-2.1,0.6c-0.7,0-1.4-0.3-2-0.6c-1.2-0.7-2.2-1.8-2.8-3.1c-0.3-0.7-0.4-1.4-0.5-2c-0.1-0.7-0.2-1.4-0.2-2l0.6,0.3
			c-0.9,0.6-1.8,1-2.8,1.3c-0.9,0.3-1.9,0.6-2.9,0.9c-1,0.2-2,0.4-3,0.6c-1,0.1-2,0.3-3,0.3c-1,0.1-2-0.1-3.1-0.2l-1.5-0.4
			c-0.5-0.1-1-0.4-1.4-0.5l-0.7-0.3l-0.7-0.4c-0.4-0.3-0.9-0.5-1.3-0.8l-1.3-0.9c-0.4-0.3-0.8-0.7-1.2-1c-0.8-0.6-1.4-1.4-2.2-2.2
			l-0.9-1.2c-0.3-0.4-0.6-0.8-0.9-1.2l-0.8-1.3c-0.3-0.4-0.5-0.9-0.7-1.3c-0.5-0.9-0.9-1.8-1.3-2.8c-0.4-0.9-0.7-1.9-1-2.9
			c-0.3-1-0.5-2-0.8-2.9c-0.2-1-0.4-2-0.5-3l-0.3-2.9L393.5,166.9z"/>
	</g>
	<g>
		<path class="st4" d="M368.1,122.5c0,0-0.6,0.6-1.8,1.2c-0.6,0.3-1.3,0.6-2.1,0.9c-0.8,0.3-1.7,0.4-2.6,0.5c-0.4,0.1-0.9,0-1.3,0.1
			c-0.4,0-0.9,0-1.3-0.1c-0.4-0.1-0.8-0.2-1.2-0.4c-0.4-0.1-0.7-0.3-1-0.5c-0.3-0.2-0.6-0.3-0.8-0.5c-0.2-0.2-0.4-0.3-0.5-0.5
			c-0.3-0.3-0.4-0.5-0.4-0.5l0.1-0.2c0,0,0.2,0,0.6,0c0.2,0,0.4,0,0.7,0.1c0.2,0,0.5,0,0.8,0.1c0.3,0,0.6,0.1,1,0.1
			c0.3,0,0.7,0.1,1,0.2c0.4,0.1,0.7,0.2,1.1,0.3c0.4,0.1,0.8,0.2,1.2,0.2c0.8,0.1,1.6,0,2.3,0c0.4,0,0.7-0.1,1.1-0.2
			c0.3-0.1,0.7-0.1,1-0.2c1.2-0.3,1.9-0.7,1.9-0.7L368.1,122.5z"/>
	</g>
	<g>
		<path class="st4" d="M347.1,128.8c0,0,0.1,0.1,0.2,0.3c0.1,0.2,0.3,0.4,0.5,0.8c0.5,0.7,1.2,1.6,2.2,2.6c0.5,0.5,1,1,1.6,1.6
			c0.6,0.5,1.3,1.1,2,1.6c0.7,0.5,1.5,1,2.3,1.5c0.4,0.2,0.8,0.5,1.2,0.7c0.4,0.2,0.8,0.4,1.3,0.6l1.3,0.6c0.4,0.2,0.9,0.3,1.3,0.5
			c0.9,0.3,1.8,0.5,2.7,0.7c1.8,0.4,3.4,0.5,4.9,0.6c2.9,0.1,4.8-0.2,4.8-0.2s-1.9,0.4-4.8,0.5c-1.5,0-3.2,0-5-0.3
			c-0.9-0.1-1.8-0.3-2.8-0.6c-0.5-0.1-0.9-0.3-1.4-0.4l-1.4-0.5c-0.5-0.2-0.9-0.4-1.4-0.5c-0.5-0.2-0.9-0.4-1.3-0.6
			c-0.9-0.4-1.7-0.9-2.5-1.4c-0.8-0.5-1.5-1-2.2-1.5c-0.7-0.5-1.3-1-1.9-1.5c-1.1-1-2-1.9-2.5-2.6c-0.3-0.3-0.5-0.6-0.6-0.8
			c-0.1-0.2-0.2-0.3-0.2-0.3L347.1,128.8z"/>
	</g>
	<path class="st2" d="M340.1,126.8c0,0-0.5-5.1,5.3-10.5c2.1-1.7,6.9,1.8,6.4,5.8c-0.2,2-1.9,4.6-3.5,6
		C344.9,131.1,340.4,128.4,340.1,126.8z"/>
	<ellipse transform="matrix(0.9859 -0.1672 0.1672 0.9859 -15.12 60.8326)" class="st2" cx="353.8" cy="120.2" rx="2.1" ry="2.8"/>
	<path class="st2" d="M435.4,179c0,0,9.3-5.1,7.8-17.1"/>
	<path class="st2" d="M416.8,177.6c0,0,3.4,6.5-0.4,14.6"/>
	<g>
		<path class="st4" d="M407.6,99.3c0,0,1-0.3,2.8-0.7c0.9-0.2,2-0.4,3.2-0.6c0.6-0.1,1.3-0.2,2-0.3c0.7,0,1.5,0,2.3,0.1
			c1.6,0.2,3.3,0.7,4.9,1.6c1.6,0.9,3.1,2.2,4.3,3.9c0.6,0.8,1,1.8,1.4,2.7c0.4,0.9,0.7,1.9,1.1,2.8c0.7,1.9,1.5,3.9,2.1,5.9
			c1.3,4,2.4,8,3.2,11.9c0.4,1.9,0.8,3.8,0.7,5.7c-0.1,1.8-0.6,3.5-1.3,5c-0.7,1.4-1.6,2.6-2.5,3.5c-0.9,0.9-1.9,1.5-2.7,2
			c-0.8,0.4-1.5,0.7-1.9,0.9c-0.5,0.2-0.7,0.2-0.7,0.2s0.2-0.1,0.7-0.3c0.5-0.2,1.1-0.5,1.9-1c0.8-0.5,1.6-1.2,2.5-2.1
			c0.9-0.9,1.7-2.1,2.3-3.5c0.6-1.4,1.1-3,1.1-4.8c0.1-1.7-0.4-3.5-0.8-5.5c-0.9-3.8-2-7.8-3.3-11.7c-0.6-2-1.3-3.9-2-5.9
			c-0.4-1-0.7-1.9-1.1-2.8c-0.4-0.9-0.8-1.8-1.3-2.6c-1-1.6-2.4-2.8-3.9-3.8c-1.5-0.9-3.1-1.4-4.6-1.7c-0.8-0.1-1.5-0.1-2.2-0.2
			c-0.7,0-1.4,0.1-2,0.2c-1.3,0.1-2.4,0.3-3.3,0.5C408.7,99.1,407.6,99.3,407.6,99.3z"/>
	</g>
	<path class="st2" d="M351,118.7l2.2-3.5c2.4,0.6,5-0.4,6.4-2.6c1.1-1.8,1.1-4,0.2-5.8l-2.6,4.2l-3.5-0.1l-1.7-3.1l2.6-4.2
		c-2,0-4,1-5.1,2.8c-1.4,2.2-1.1,5,0.5,6.9l-1.8,3"/>
	<path class="st2" d="M352,110.7l-1.1,1.7c-0.5,0.9-0.3,2,0.6,2.5l0,0c0.9,0.5,2,0.3,2.5-0.6l1.5-2.4"/>
	<path class="st2" d="M372.4,136.1c0,0,5.6,1.2,17.4-3.1c0,0,3.6,15.2,14.4,22.7c0,0-5.5,9.3-14.1,10.2"/>
	<path class="st2" d="M418.1,126.7c0,0,4.1-0.9,8.4,6.9"/>
	<line class="st2" x1="462.1" y1="30.5" x2="412.2" y2="80.4"/>
	<line class="st0" x1="363" y1="221.8" x2="338" y2="246.8"/>
	<line class="st0" x1="368.4" y1="216.4" x2="364.9" y2="219.9"/>
	<line class="st0" x1="385.4" y1="212.9" x2="352.9" y2="245.4"/>
	<line class="st0" x1="370.1" y1="245" x2="355.1" y2="260"/>
	<circle class="st0" cx="201.3" cy="60.1" r="10.6"/>
	<line class="st0" x1="211.9" y1="38.7" x2="193.4" y2="57.2"/>
	<line class="st0" x1="223.3" y1="37.3" x2="204.4" y2="56.2"/>
	<line class="st0" x1="223" y1="49.9" x2="206.1" y2="66.9"/>
	<line class="st2" x1="465.5" y1="48" x2="443.3" y2="70.1"/>
	<circle class="st2" cx="457.2" cy="74" r="0.5"/>
	<circle class="st2" cx="378.7" cy="241" r="0.5"/>
	<circle class="st2" cx="429.9" cy="209.6" r="0.5"/>
</g>
</svg>
