<?xml version="1.0" encoding="utf-8"?>
<!-- Generator: Adobe Illustrator 16.0.0, SVG Export Plug-In . SVG Version: 6.00 Build 0)  -->
<!DOCTYPE svg PUBLIC "-//W3C//DTD SVG 1.1//EN" "http://www.w3.org/Graphics/SVG/1.1/DTD/svg11.dtd">
<svg version="1.1" id="图层_1" xmlns="http://www.w3.org/2000/svg" xmlns:xlink="http://www.w3.org/1999/xlink" x="0px" y="0px"
	 width="1000px" height="300px" viewBox="0 0 1000 300" enable-background="new 0 0 1000 300" xml:space="preserve">
<g>
	<g>
		<path fill="#DDC078" d="M41.083,217.658c-0.764-0.76-1.144-1.628-1.144-2.6v-72.592c0-1.108,0.38-2.045,1.144-2.809
			c0.76-0.76,1.628-1.144,2.6-1.144h45.968c5.268,0,9.809-1.872,13.624-5.616c3.812-3.744,5.72-8.249,5.72-13.52
			c0-5.408-1.908-9.984-5.72-13.728c-3.815-3.744-8.356-5.616-13.624-5.616H43.683c-0.972,0-1.839-0.38-2.6-1.144
			c-0.764-0.76-1.144-1.696-1.144-2.808V76.947c0-1.108,0.38-2.044,1.144-2.808c0.76-0.76,1.628-1.144,2.6-1.144h45.968
			c8.32,0,16.016,2.08,23.088,6.24c7.072,4.16,12.688,9.812,16.848,16.952c4.16,7.144,6.24,14.872,6.24,23.192
			c0,8.32-2.08,16.016-6.24,23.088s-9.776,12.688-16.848,16.848c-7.072,4.16-14.768,6.24-23.088,6.24H67.604
			c-1.528,0-2.568,0.208-3.12,0.624c-0.556,0.416-0.832,1.248-0.832,2.496v46.384c0,1.111-0.384,2.012-1.144,2.704
			c-0.764,0.695-1.7,1.04-2.808,1.04H43.683C42.711,218.803,41.844,218.422,41.083,217.658z"/>
		<path fill="#DDC078" d="M167.962,171.898c-0.624-0.623-0.936-1.352-0.936-2.184v-93.6c0-0.832,0.312-1.56,0.936-2.184
			s1.352-0.936,2.184-0.936h21.632c0.832,0,1.56,0.312,2.184,0.936s0.936,1.352,0.936,2.184v93.6c0,0.832-0.312,1.561-0.936,2.184
			c-0.624,0.625-1.352,0.937-2.184,0.937h-21.632C169.314,172.835,168.586,172.523,167.962,171.898z M245.546,217.658
			c-0.764-0.76-1.144-1.628-1.144-2.6v-50.128c0-1.108-0.348-2.009-1.04-2.704c-0.696-0.691-1.596-1.04-2.704-1.04h-26
			c-0.972,0-1.839-0.38-2.6-1.144c-0.764-0.761-1.144-1.629-1.144-2.6v-17.681c0-1.108,0.38-2.008,1.144-2.704
			c0.761-0.692,1.628-1.04,2.6-1.04h26c1.108,0,2.008-0.38,2.704-1.144c0.692-0.76,1.04-1.628,1.04-2.6V76.739
			c0-0.969,0.38-1.836,1.144-2.6c0.76-0.76,1.628-1.144,2.6-1.144h21.216c0.969,0,1.836,0.384,2.6,1.144
			c0.761,0.764,1.145,1.631,1.145,2.6v138.32c0,0.972-0.348,1.84-1.04,2.6c-0.695,0.764-1.596,1.145-2.704,1.145h-21.216
			C247.174,218.803,246.306,218.422,245.546,217.658z"/>
		<path fill="#DDC078" d="M381.057,217.867c-0.831-0.625-1.388-1.353-1.663-2.185l-10.4-38.688c-0.416-1.248-1.18-2.287-2.288-3.119
			c-1.111-0.832-2.288-1.248-3.536-1.248h-31.408c-0.972,0-1.768-0.313-2.392-0.936c-0.624-0.625-0.936-1.353-0.936-2.185V153.49
			c0-0.832,0.312-1.592,0.936-2.287c0.624-0.693,1.42-1.041,2.392-1.041h24.96c1.248,0,2.253-0.447,3.017-1.352
			c0.761-0.9,0.936-1.976,0.52-3.224l-11.647-42.432c-0.279-1.108-0.972-2.08-2.08-2.912c-1.111-0.832-2.288-1.248-3.536-1.248
			h-1.456c-1.111,0-2.22,0.416-3.328,1.248c-1.111,0.832-1.804,1.804-2.08,2.912l-7.695,27.872c-0.28,0.832-0.8,1.456-1.561,1.872
			c-0.764,0.416-1.632,0.487-2.6,0.208l-19.553-4.784c-0.832-0.137-1.491-0.624-1.976-1.456c-0.487-0.832-0.592-1.664-0.312-2.496
			l13.104-48.048c0.276-0.832,0.864-1.593,1.768-2.288c0.9-0.692,1.769-1.04,2.601-1.04h44.72c0.832,0,1.732,0.312,2.704,0.936
			c0.969,0.624,1.593,1.352,1.872,2.184l38.271,139.776v0.416c0,1.664-0.831,2.496-2.495,2.496h-21.217
			C382.79,218.803,381.889,218.49,381.057,217.867z"/>
		<path fill="#DDC078" d="M510.016,218.387c0,0-0.555-0.692-1.664-2.08c-5.408-8.457-14.248-22.185-26.52-41.184
			c-12.272-18.996-21.528-33.488-27.768-43.472c-0.832-0.969-1.388-1.456-1.664-1.456c-0.279,0-0.451,0.279-0.52,0.832
			c-0.071,0.556-0.104,0.972-0.104,1.248l0.416,24.543c0,0.973-0.348,1.84-1.04,2.601c-0.695,0.764-1.596,1.144-2.704,1.144h-20.176
			c-1.111,0-2.047-0.344-2.808-1.039c-0.764-0.693-1.145-1.594-1.145-2.705V77.363c0-1.108,0.381-2.044,1.145-2.808
			c0.761-0.76,1.696-1.144,2.808-1.144h20.384c0.969,0,1.801,0.416,2.496,1.248l50.336,83.824c1.248,2.359,2.287,3.536,3.119,3.536
			c0.693,0,1.041-1.177,1.041-3.536l-0.209-81.12c0-1.108,0.381-2.044,1.145-2.808c0.76-0.76,1.629-1.144,2.6-1.144h22.048
			c1.109,0,2.045,0.384,2.809,1.144c0.76,0.764,1.145,1.7,1.145,2.808v137.28c0,1.111-0.385,2.012-1.145,2.704
			c-0.764,0.695-1.699,1.04-2.809,1.04h-19.135h-0.209h-0.207C510.568,218.387,510.016,218.387,510.016,218.387z"/>
		<path fill="#DDC078" d="M582.397,215.683v-112.32c0-1.385-0.488-2.528-1.457-3.432c-0.971-0.9-2.15-1.352-3.535-1.352h-11.857
			c-0.695,0-1.318-0.276-1.871-0.832c-0.557-0.552-0.832-1.248-0.832-2.08V76.323c0-0.832,0.275-1.524,0.832-2.08
			c0.553-0.552,1.176-0.832,1.871-0.832h90.896c0.693,0,1.316,0.28,1.873,0.832c0.553,0.556,0.832,1.248,0.832,2.08v19.344
			c0,0.832-0.279,1.528-0.832,2.08c-0.557,0.556-1.18,0.832-1.873,0.832h-38.896c-1.387,0-2.566,0.488-3.535,1.456
			c-0.971,0.972-1.455,2.08-1.455,3.328v112.32c0,0.832-0.281,1.491-0.832,1.976c-0.557,0.488-1.18,0.729-1.873,0.729h-24.752
			C583.298,218.387,582.397,217.486,582.397,215.683z"/>
		<path fill="#DDC078" d="M682.237,177.307c-4.576-10.191-6.863-20.764-6.863-31.72c0-8.596,1.42-17.021,4.264-25.272
			c2.84-8.249,7.104-15.772,12.791-22.568c6.793-8.32,14.768-14.732,23.92-19.24c9.152-4.504,18.789-7.036,28.912-7.592h0.416
			c1.109,0,2.045,0.416,2.809,1.248c0.76,0.832,1.213,1.872,1.352,3.12v18.096c0,2.636-1.455,4.092-4.367,4.368
			c-6.24,0.556-12.205,2.324-17.889,5.304c-5.688,2.983-10.471,6.968-14.352,11.96c-7.488,9.152-11.232,19.484-11.232,30.992
			c0,6.935,1.455,13.624,4.367,20.071c2.912,6.449,7.072,11.961,12.48,16.537c9.152,7.487,19.412,11.231,30.785,11.231
			c6.932,0,13.588-1.456,19.967-4.368c6.377-2.912,11.785-7.141,16.225-12.688c3.744-4.437,6.553-9.324,8.424-14.664
			c1.871-5.337,2.809-10.781,2.809-16.328c0-7.904-1.736-15.252-5.201-22.048c-0.695-1.384-1.039-2.772-1.039-4.16
			c0-1.801,0.832-3.396,2.496-4.784c1.107-0.692,3.256-2.148,6.447-4.368c3.189-2.216,5.201-3.604,6.033-4.16
			c1.107-0.692,2.146-1.04,3.119-1.04c2.217,0,3.881,1.04,4.992,3.12c6.656,11.648,9.984,24.2,9.984,37.648
			c0,8.735-1.457,17.231-4.369,25.479c-2.912,8.252-7.211,15.775-12.895,22.568c-6.797,8.736-15.289,15.428-25.48,20.072
			c-10.193,4.646-20.836,6.968-31.928,6.968c-8.736,0-17.197-1.491-25.377-4.472c-8.184-2.98-15.463-7.313-21.84-13
			C693.397,196.271,686.813,187.498,682.237,177.307z"/>
		<path fill="#DDC078" d="M972.187,74.763c0.693,0.764,1.041,1.7,1.041,2.808v137.28c0,1.112-0.348,2.012-1.041,2.704
			c-0.695,0.695-1.527,1.04-2.496,1.04h-20.592c-0.971,0-1.803-0.345-2.496-1.04c-0.695-0.692-1.039-1.592-1.039-2.704v-82.368
			c0-1.248-0.279-1.872-0.832-1.872c-0.416,0-1.041,0.487-1.873,1.456c-2.219,3.328-5.859,8.528-10.92,15.599
			c-5.063,7.072-8.771,12.205-11.127,15.393c-1.389,1.804-2.533,2.983-3.434,3.536c-0.902,0.556-2.391,0.832-4.471,0.832h-3.537
			c-2.496,0-4.195-0.208-5.096-0.624c-0.902-0.416-1.908-1.316-3.016-2.704l-22.672-31.824c-0.557-1.248-1.18-1.872-1.873-1.872
			c-0.555,0-0.832,0.624-0.832,1.872v25.792c0,1.111-0.348,2.012-1.039,2.704c-0.695,0.696-1.527,1.04-2.496,1.04h-20.385
			c-0.971,0-1.838-0.38-2.6-1.145c-0.764-0.76-1.143-1.627-1.143-2.6V77.571c0-1.108,0.379-2.044,1.143-2.808
			c0.762-0.76,1.629-1.144,2.6-1.144h20.801c0.416,0,0.936,0.244,1.561,0.728c0.623,0.488,1.072,1.007,1.352,1.56l31.615,52.208
			c0.137,0.279,0.521,0.695,1.145,1.248c0.625,0.556,1.42,0.832,2.393,0.832h0.207c0.969,0,1.732-0.345,2.289-1.04
			c0.553-0.692,0.9-1.177,1.039-1.456l31.408-51.584c0.416-0.692,0.832-1.28,1.248-1.768c0.416-0.484,0.969-0.728,1.664-0.728h0.209
			h20.799C970.659,73.619,971.491,74.002,972.187,74.763z"/>
	</g>
</g>
</svg>
